<?xml version="1.0" encoding="UTF-8" standalone="no"?>
<!-- Created with Inkscape (http://www.inkscape.org/) -->

<svg
   width="8605.3711"
   height="9458.2041"
   viewBox="0 0 2276.8377 2502.4831"
   version="1.1"
   id="svg1"
   xml:space="preserve"
   inkscape:export-filename="logo sin fondo.png"
   inkscape:export-xdpi="96"
   inkscape:export-ydpi="96"
   inkscape:version="1.4.2 (f4327f4, 2025-05-13)"
   sodipodi:docname="logo.svg"
   xmlns:inkscape="http://www.inkscape.org/namespaces/inkscape"
   xmlns:sodipodi="http://sodipodi.sourceforge.net/DTD/sodipodi-0.dtd"
   xmlns="http://www.w3.org/2000/svg"
   xmlns:svg="http://www.w3.org/2000/svg"><sodipodi:namedview
     id="namedview1"
     pagecolor="#ffffff"
     bordercolor="#999999"
     borderopacity="1"
     inkscape:showpageshadow="2"
     inkscape:pageopacity="0"
     inkscape:pagecheckerboard="0"
     inkscape:deskcolor="#d1d1d1"
     inkscape:document-units="mm"
     inkscape:export-bgcolor="#ffffff00"
     inkscape:zoom="0.038976806"
     inkscape:cx="4194.8024"
     inkscape:cy="5657.2106"
     inkscape:window-width="1366"
     inkscape:window-height="697"
     inkscape:window-x="-8"
     inkscape:window-y="-8"
     inkscape:window-maximized="1"
     inkscape:current-layer="layer1" /><defs
     id="defs1" /><g
     inkscape:label="Capa 1"
     inkscape:groupmode="layer"
     id="layer1"><g
       id="g1"
       transform="translate(-205.54122,-51.055149)"><path
         style="fill:#deaa98"
         d="m 1280.6021,2538.7218 c 4.3491,-0.5412 12.0661,-0.5501 17.149,-0.02 5.0828,0.5303 1.5245,0.9731 -7.9074,0.984 -9.4319,0.011 -13.5906,-0.423 -9.2416,-0.9642 z m 159.3232,0.035 c 3.0474,-0.586 7.4571,-0.5637 9.7994,0.05 2.3423,0.6131 -0.1511,1.0926 -5.5407,1.0654 -5.3897,-0.027 -7.3061,-0.5289 -4.2587,-1.1149 z m -198.3129,-2.3907 c 1.7685,-0.7077 3.8814,-0.6206 4.6955,0.1934 0.8141,0.8141 -0.6329,1.3931 -3.2154,1.2867 -2.8539,-0.1175 -3.4344,-0.698 -1.4801,-1.4801 z m 546.7749,-114.6941 c -10.0382,-10.1056 -17.7,-18.3739 -17.0263,-18.3739 0.6737,0 9.438,8.2683 19.4761,18.3739 10.0382,10.1056 17.7,18.3738 17.0263,18.3738 -0.6737,0 -9.4379,-8.2682 -19.4761,-18.3738 z m -846.42167,-45.3222 c 2.43879,-2.6948 4.98538,-4.8997 5.65909,-4.8997 0.6737,0 -0.77045,2.2049 -3.20924,4.8997 -2.43879,2.6949 -4.98537,4.8997 -5.65908,4.8997 -0.67371,0 0.77045,-2.2048 3.20923,-4.8997 z m 797.23937,-6.737 -5.9392,-6.7371 6.737,5.9392 c 3.7054,3.2665 6.7371,6.2982 6.7371,6.7371 0,1.9213 -1.9839,0.3576 -7.5349,-5.9392 z m -776.41568,-16.2365 c 0,-0.5088 1.92926,-2.438 4.28723,-4.2873 3.88559,-3.0472 3.97225,-2.9606 0.92495,0.925 -3.2004,4.0808 -5.21218,5.3786 -5.21218,3.3623 z m 756.68978,-5.8122 c -3.0473,-3.8855 -2.9606,-3.9722 0.925,-0.9249 2.358,1.8493 4.2872,3.7785 4.2872,4.2872 0,2.0163 -2.0118,0.7186 -5.2122,-3.3623 z m 279.5949,-21.4361 c 3.1646,-3.3685 6.305,-6.1246 6.9787,-6.1246 0.6737,0 -1.3643,2.7561 -4.5288,6.1246 -3.1646,3.3685 -6.305,6.1246 -6.9787,6.1246 -0.6737,0 1.3642,-2.7561 4.5288,-6.1246 z m -1010.5613,-1.2249 c 2.43879,-2.6949 4.98538,-4.8997 5.65908,-4.8997 0.67371,0 -0.77045,2.2048 -3.20923,4.8997 -2.43879,2.6948 -4.98538,4.8997 -5.65909,4.8997 -0.6737,0 0.77045,-2.2049 3.20924,-4.8997 z M 725.54112,2143.6149 c 0,-3.3685 0.55605,-4.7466 1.23566,-3.0623 0.67962,1.6843 0.67962,4.4403 0,6.1246 -0.67961,1.6843 -1.23566,0.3062 -1.23566,-3.0623 z m 575.98598,-6.5974 c 2.3836,-0.6212 5.6909,-0.5803 7.3495,0.091 1.6587,0.671 -0.2916,1.1792 -4.3338,1.1293 -4.0423,-0.05 -5.3993,-0.599 -3.0157,-1.2201 z m 85.698,0.01 c 2.3579,-0.6162 6.2165,-0.6162 8.5744,0 2.358,0.6162 0.4288,1.1203 -4.2872,1.1203 -4.7159,0 -6.6452,-0.5041 -4.2872,-1.1203 z m 577.5511,-6.8857 c 4.5709,-4.716 8.8619,-8.5745 9.5356,-8.5745 0.6737,0 -2.5149,3.8585 -7.0858,8.5745 -4.5709,4.7159 -8.8619,8.5744 -9.5356,8.5744 -0.6737,0 2.5149,-3.8585 7.0858,-8.5744 z m -693.9188,4.5021 c 1.6843,-0.6796 4.4404,-0.6796 6.1246,0 1.6843,0.6796 0.3063,1.2356 -3.0623,1.2356 -3.3685,0 -4.7466,-0.556 -3.0623,-1.2356 z m 147.1439,-0.051 c 1.7684,-0.7076 3.8814,-0.6206 4.6955,0.1935 0.8141,0.814 -0.6329,1.393 -3.2154,1.2867 -2.854,-0.1176 -3.4345,-0.6981 -1.4801,-1.4802 z m 22.0486,-2.4498 c 1.7685,-0.7077 3.8814,-0.6207 4.6955,0.1934 0.8141,0.8141 -0.6329,1.3931 -3.2154,1.2867 -2.8539,-0.1175 -3.4345,-0.698 -1.4801,-1.4801 z m -734.67979,-19.7626 -5.93919,-6.7371 6.73708,5.9392 c 6.29681,5.5511 7.86054,7.5349 5.93919,7.5349 -0.43883,0 -3.47052,-3.0316 -6.73708,-6.737 z m -31.79445,-34.2979 -8.44258,-9.1869 9.18692,8.4426 c 5.05281,4.6434 9.18692,8.7775 9.18692,9.1869 0,1.8708 -2.0731,0.1084 -9.93126,-8.4426 z m 673.17234,7.4188 c 4.349,-0.5412 12.066,-0.5501 17.1489,-0.02 5.0829,0.5303 1.5245,0.9731 -7.9074,0.984 -9.4319,0.011 -13.5906,-0.4231 -9.2415,-0.9643 z m -68.3879,-2.3552 c 1.7684,-0.7077 3.8814,-0.6207 4.6955,0.1934 0.8141,0.8141 -0.6329,1.3931 -3.2154,1.2867 -2.854,-0.1176 -3.4345,-0.6981 -1.4801,-1.4801 z m -855.9945,-35.6866 -4.66692,-5.5122 5.51215,4.6669 c 5.18006,4.3858 6.62742,6.3574 4.66692,6.3574 -0.46487,0 -2.94534,-2.4805 -5.51215,-5.5121 z m 1633.0549,-10.4119 c 8.6803,-8.7582 16.3336,-15.924 17.0073,-15.924 0.6737,0 -5.8771,7.1658 -14.5575,15.924 -8.6803,8.7582 -16.3337,15.924 -17.0074,15.924 -0.6737,0 5.8772,-7.1658 14.5576,-15.924 z m 213.1365,10.0994 c 0,-0.5088 1.9293,-2.438 4.2873,-4.2873 3.8856,-3.0472 3.9722,-2.9606 0.9249,0.925 -3.2004,4.0808 -5.2122,5.3786 -5.2122,3.3623 z m -1642.73672,-16.8365 -9.68411,-10.4118 10.41184,9.6841 c 9.68291,9.0061 11.53761,11.1396 9.68411,11.1396 -0.40025,0 -5.08558,-4.6853 -10.41184,-10.4119 z M 1800.6365,1968.752 c 0,-0.5087 1.9293,-2.438 4.2872,-4.2872 3.8856,-3.0473 3.9723,-2.9607 0.925,0.9249 -3.2004,4.0809 -5.2122,5.3786 -5.2122,3.3623 z m -951.82247,-36.4352 -19.54129,-20.2112 20.21122,19.5413 c 11.11618,10.7477 20.21123,19.8427 20.21123,20.2112 0,1.7868 -2.73181,-0.7697 -20.88116,-19.5413 z m 1326.18947,6.2885 c 1.7685,-0.7077 3.8815,-0.6207 4.6956,0.1934 0.8141,0.8141 -0.6329,1.3931 -3.2154,1.2867 -2.854,-0.1175 -3.4345,-0.6981 -1.4802,-1.4801 z m -111.2413,-45.486 -4.667,-5.5122 5.5122,4.667 c 5.18,4.3857 6.6274,6.3573 4.6669,6.3573 -0.4649,0 -2.9453,-2.4804 -5.5121,-5.5121 z m -183.5057,-4.2872 c 2.4388,-2.6949 4.9854,-4.8997 5.6591,-4.8997 0.6737,0 -0.7705,2.2048 -3.2093,4.8997 -2.4387,2.6948 -4.9853,4.8997 -5.659,4.8997 -0.6737,0 0.7704,-2.2049 3.2092,-4.8997 z m -1074.56979,-1.8374 c -3.04729,-3.8856 -2.96064,-3.9723 0.92496,-0.925 4.08082,3.2004 5.37858,5.2122 3.36227,5.2122 -0.50872,0 -2.43797,-1.9292 -4.28723,-4.2872 z m 1389.37499,-11.6368 c 3.1645,-3.3685 6.305,-6.1246 6.9787,-6.1246 0.6737,0 -1.3643,2.7561 -4.5289,6.1246 -3.1646,3.3685 -6.305,6.1246 -6.9787,6.1246 -0.6737,0 1.3643,-2.7561 4.5289,-6.1246 z m -1404.07406,-5.5121 c -3.04729,-3.8856 -2.96064,-3.9723 0.92495,-0.925 2.35798,1.8493 4.28723,3.7785 4.28723,4.2872 0,2.0163 -2.01178,0.7186 -5.21218,-3.3622 z m 1234.84926,-12.2493 -5.9392,-6.737 6.7371,5.9391 c 3.7054,3.2666 6.7371,6.2983 6.7371,6.7371 0,1.9214 -1.9839,0.3576 -7.535,-5.9392 z m -1711.86985,-3.0623 c 0,-3.3685 0.55606,-4.7466 1.23567,-3.0623 0.67962,1.6843 0.67962,4.4404 0,6.1246 -0.67961,1.6843 -1.23567,0.3063 -1.23567,-3.0623 z m 1770.53905,-1.8374 c -3.0473,-3.8856 -2.9606,-3.9722 0.925,-0.9249 2.3579,1.8492 4.2872,3.7785 4.2872,4.2872 0,2.0163 -2.0118,0.7186 -5.2122,-3.3623 z m 177.4855,-17.7613 c 0,-8.7582 0.4447,-12.3411 0.9881,-7.962 0.5434,4.3791 0.5434,11.5449 0,15.924 -0.5434,4.3791 -0.9881,0.7962 -0.9881,-7.962 z m 99.3471,-4.2873 c -3.0473,-3.8856 -2.9607,-3.9722 0.9249,-0.9249 2.358,1.8492 4.2873,3.7785 4.2873,4.2872 0,2.0163 -2.0118,0.7186 -5.2122,-3.3623 z m -306.1037,-4.8997 -5.9392,-6.737 6.7371,5.9392 c 3.7054,3.2665 6.7371,6.2982 6.7371,6.737 0,1.9214 -1.9839,0.3576 -7.535,-5.9392 z m 286.5049,-12.2492 c -3.0473,-3.8856 -2.9606,-3.9722 0.925,-0.9249 2.3579,1.8492 4.2872,3.7785 4.2872,4.2872 0,2.0163 -2.0118,0.7185 -5.2122,-3.3623 z m -369.9267,-4.8997 c -3.0473,-3.8856 -2.9606,-3.9722 0.925,-0.9249 4.0808,3.2004 5.3786,5.2121 3.3622,5.2121 -0.5087,0 -2.4379,-1.9292 -4.2872,-4.2872 z m -1614.13574,-3.9872 c 0,-0.5088 1.92925,-2.438 4.28723,-4.2873 3.88559,-3.0473 3.97224,-2.9606 0.92495,0.925 -3.2004,4.0808 -5.21218,5.3786 -5.21218,3.3623 z m 1659.65514,-14.3866 -9.6841,-10.4119 10.4118,9.6841 c 9.6829,9.0062 11.5376,11.1396 9.6841,11.1396 -0.4002,0 -5.0856,-4.6853 -10.4118,-10.4118 z m 302.3587,3.6747 c -3.0473,-3.8855 -2.9606,-3.9722 0.9249,-0.9249 2.358,1.8492 4.2873,3.7785 4.2873,4.2872 0,2.0163 -2.0118,0.7186 -5.2122,-3.3623 z m -1941.19015,-7.962 c 2.43878,-2.6948 4.98537,-4.8996 5.65908,-4.8996 0.67371,0 -0.77045,2.2048 -3.20924,4.8996 -2.43879,2.6949 -4.98537,4.8997 -5.65908,4.8997 -0.67371,0 0.77045,-2.2048 3.20924,-4.8997 z m 1919.14155,-11.6367 c -3.0473,-3.8856 -2.9607,-3.9723 0.9249,-0.925 2.358,1.8493 4.2873,3.7785 4.2873,4.2873 0,2.0163 -2.0118,0.7185 -5.2122,-3.3623 z m -1881.16895,-23.886 c 8.68035,-8.7582 16.33367,-15.924 17.00738,-15.924 0.67371,0 -5.87718,7.1658 -14.55753,15.924 -8.68035,8.7582 -16.33367,15.924 -17.00738,15.924 -0.6737,0 5.87718,-7.1658 14.55753,-15.924 z m 1752.63175,5.5121 -4.6669,-5.5121 5.5121,4.6669 c 5.1801,4.3858 6.6275,6.3574 4.667,6.3574 -0.4649,0 -2.9454,-2.4805 -5.5122,-5.5122 z m 106.6156,-1.2249 -5.9391,-6.7371 6.737,5.9392 c 3.7054,3.2666 6.7371,6.2983 6.7371,6.7371 0,1.9214 -1.9839,0.3576 -7.535,-5.9392 z m -301.331,-4.8997 -5.9392,-6.7371 6.7371,5.9392 c 3.7054,3.2666 6.7371,6.2983 6.7371,6.7371 0,1.9214 -1.9839,0.3576 -7.535,-5.9392 z m 230.3391,-19.5987 -8.4426,-9.187 9.1869,8.4426 c 8.551,7.8582 10.3133,9.9313 8.4426,9.9313 -0.4094,0 -4.5435,-4.1341 -9.1869,-9.1869 z m 42.85,-1.225 -7.1954,-7.962 7.962,7.1955 c 7.4217,6.7071 9.0881,8.7285 7.1954,8.7285 -0.4216,0 -4.0045,-3.5829 -7.962,-7.962 z m -109.0494,-1.2249 -5.9392,-6.7371 6.7371,5.9392 c 3.7054,3.2666 6.737,6.2983 6.737,6.7371 0,1.9214 -1.9838,0.3576 -7.5349,-5.9392 z m -230.1708,-41.6474 -15.8533,-16.5364 16.5365,15.8532 c 15.3598,14.7252 17.6563,17.2197 15.8532,17.2197 -0.3758,0 -7.8172,-7.4414 -16.5364,-16.5365 z m 197.0505,11.0243 -4.6669,-5.5121 5.5122,4.6669 c 5.18,4.3858 6.6274,6.3574 4.6669,6.3574 -0.4649,0 -2.9454,-2.4805 -5.5122,-5.5122 z m 44.2147,-19.5987 -9.6841,-10.4119 10.4119,9.6841 c 5.7265,5.3263 10.4118,10.0116 10.4118,10.4119 0,1.8535 -2.1334,0 -11.1396,-9.6841 z m -84.5362,-18.3739 -8.4426,-9.1869 9.1869,8.4426 c 8.551,7.8582 10.3133,9.9313 8.4426,9.9313 -0.4094,0 -4.5435,-4.1342 -9.1869,-9.187 z m -864.4702,-2.0415 c 0.1175,-2.8539 0.698,-3.4344 1.4801,-1.4801 0.7077,1.7685 0.6206,3.8815 -0.1934,4.6955 -0.8141,0.8141 -1.3931,-0.6329 -1.2867,-3.2154 z m 657.3573,-21.232 -4.6669,-5.5122 5.5122,4.667 c 5.18,4.3857 6.6274,6.3574 4.6669,6.3574 -0.4649,0 -2.9454,-2.4805 -5.5122,-5.5122 z m 178.9174,-2.4498 -7.1954,-7.962 7.962,7.1954 c 7.4217,6.7071 9.0881,8.7286 7.1954,8.7286 -0.4216,0 -4.0045,-3.5829 -7.962,-7.962 z m 51.5242,-14.6991 -14.6224,-15.3116 15.3115,14.6224 c 14.2231,13.583 16.4326,16.0007 14.6224,16.0007 -0.379,0 -7.2692,-6.8902 -15.3115,-15.3115 z m -88.2719,-19.5988 -7.1954,-7.962 7.962,7.1954 c 7.4217,6.7072 9.0881,8.7286 7.1954,8.7286 -0.4216,0 -4.0045,-3.5829 -7.962,-7.962 z m -405.9078,-1.01 c 1.6843,-0.6796 4.4404,-0.6796 6.1246,0 1.6843,0.6796 0.3063,1.2357 -3.0623,1.2357 -3.3685,0 -4.7465,-0.5561 -3.0623,-1.2357 z m -276.6794,-7.4006 c 1.7685,-0.7077 3.8815,-0.6206 4.6955,0.1934 0.8141,0.8141 -0.6329,1.3931 -3.2154,1.2867 -2.8539,-0.1175 -3.4344,-0.698 -1.4801,-1.4801 z m 57.4649,-0.024 c 2.3836,-0.6211 5.6909,-0.5803 7.3495,0.091 1.6586,0.6711 -0.2916,1.1793 -4.3338,1.1293 -4.0423,-0.05 -5.3994,-0.5989 -3.0157,-1.2201 z m 599.2406,-14.8387 c -3.0473,-3.8856 -2.9607,-3.9723 0.9249,-0.925 2.358,1.8493 4.2872,3.7785 4.2872,4.2873 0,2.0163 -2.0117,0.7185 -5.2121,-3.3623 z m -375.1264,-12.2056 c 5.7265,-0.5158 15.0972,-0.5158 20.8237,0 5.7265,0.5157 1.0412,0.9377 -10.4118,0.9377 -11.4531,0 -16.1384,-0.422 -10.4119,-0.9377 z m 454.0273,-19.2341 c 0.1176,-2.8539 0.6981,-3.4344 1.4801,-1.4801 0.7077,1.7685 0.6207,3.8815 -0.1934,4.6955 -0.814,0.8141 -1.3931,-0.6329 -1.2867,-3.2154 z M 629.80373,1527.2746 c 0.11755,-2.854 0.69806,-3.4345 1.48011,-1.4801 0.70769,1.7684 0.62066,3.8814 -0.1934,4.6955 -0.81407,0.8141 -1.39309,-0.6329 -1.28671,-3.2154 z m 1114.48637,-4.3956 c 0,-0.5087 1.9292,-2.438 4.2872,-4.2872 3.8856,-3.0473 3.9722,-2.9607 0.925,0.9249 -3.2005,4.0809 -5.2122,5.3786 -5.2122,3.3623 z M 627.54729,1506.655 c 0,-3.3685 0.55605,-4.7465 1.23567,-3.0623 0.67962,1.6843 0.67962,4.4404 0,6.1247 -0.67962,1.6842 -1.23567,0.3062 -1.23567,-3.0624 z m 975.31081,0.7522 c 2.3836,-0.6212 5.6909,-0.5803 7.3495,0.091 1.6587,0.6711 -0.2916,1.1793 -4.3338,1.1294 -4.0423,-0.05 -5.3993,-0.599 -3.0157,-1.2201 z m -155.3118,-5.0394 c -3.0473,-3.8856 -2.9607,-3.9722 0.9249,-0.9249 2.358,1.8492 4.2872,3.7785 4.2872,4.2872 0,2.0163 -2.0117,0.7185 -5.2121,-3.3623 z m 612.9673,-6.9412 c 0.1175,-2.8539 0.698,-3.4344 1.4801,-1.4801 0.7077,1.7685 0.6206,3.8814 -0.1934,4.6955 -0.8141,0.8141 -1.3931,-0.6329 -1.2867,-3.2154 z M 218.77039,1474.8071 c 0,-7.4108 0.45926,-10.4425 1.02058,-6.7371 0.56132,3.7054 0.56132,9.7687 0,13.4741 -0.56132,3.7054 -1.02058,0.6737 -1.02058,-6.737 z m 1844.19301,1.0207 c 0.1176,-2.8539 0.6981,-3.4344 1.4801,-1.4801 0.7077,1.7685 0.6207,3.8815 -0.1934,4.6955 -0.814,0.8141 -1.3931,-0.6328 -1.2867,-3.2154 z m -1437.63496,-9.5952 c 0.0272,-5.3897 0.52888,-7.3061 1.11487,-4.2587 0.58599,3.0474 0.56374,7.4571 -0.0494,9.7994 -0.61318,2.3423 -1.09262,-0.151 -1.06543,-5.5407 z M 2468.0239,1412.336 c 0,-26.9483 0.3558,-38.3069 0.7954,-25.2412 0.4397,13.0656 0.4414,35.1142 0,48.9969 -0.4375,13.8826 -0.7972,3.1926 -0.7994,-23.7557 z m -727.4086,37.9726 c 2.4388,-2.6948 4.9854,-4.8997 5.6591,-4.8997 0.6737,0 -0.7705,2.2049 -3.2093,4.8997 -2.4387,2.6948 -4.9853,4.8997 -5.659,4.8997 -0.6737,0 0.7704,-2.2049 3.2092,-4.8997 z m 325.0821,-1.2249 c 0.05,-4.0423 0.599,-5.3993 1.2202,-3.0157 0.6211,2.3836 0.5803,5.6909 -0.091,7.3495 -0.6711,1.6587 -1.1793,-0.2916 -1.1294,-4.3338 z M 218.94262,1403.7615 c 0,-14.1478 0.40489,-19.9356 0.89977,-12.8617 0.49487,7.074 0.49487,18.6495 0,25.7234 -0.49488,7.0739 -0.89977,1.2862 -0.89977,-12.8617 z m 1268.59128,3.6748 c 0.05,-4.0422 0.599,-5.3993 1.2201,-3.0157 0.6211,2.3836 0.5803,5.6909 -0.091,7.3496 -0.671,1.6586 -1.1793,-0.2917 -1.1293,-4.3339 z m -163.9995,-22.0486 c 0.027,-5.3897 0.5289,-7.3061 1.1149,-4.2587 0.586,3.0474 0.5637,7.4571 -0.049,9.7994 -0.6132,2.3423 -1.0927,-0.1511 -1.0655,-5.5407 z m 742.163,-39.1975 c 0.05,-4.0423 0.599,-5.3993 1.2202,-3.0157 0.6211,2.3836 0.5803,5.6909 -0.091,7.3495 -0.6711,1.6586 -1.1793,-0.2916 -1.1294,-4.3338 z m -705.8397,-5.1039 c 0.1176,-2.8539 0.6981,-3.4344 1.4801,-1.4801 0.7077,1.7685 0.6207,3.8815 -0.1934,4.6955 -0.814,0.8141 -1.3931,-0.6328 -1.2867,-3.2154 z m -734.38794,-12.0451 c 0.0138,-8.0845 0.47111,-11.0964 1.01635,-6.6932 0.54524,4.4033 0.53399,11.0179 -0.025,14.6991 -0.55899,3.6813 -1.0051,0.079 -0.99135,-8.0059 z m 1170.65384,3.6748 c 0,-3.3685 0.5561,-4.7466 1.2357,-3.0623 0.6796,1.6843 0.6796,4.4403 0,6.1246 -0.6796,1.6843 -1.2357,0.3062 -1.2357,-3.0623 z m 56.7995,-18.3738 c 0.01,-10.7794 0.4396,-14.8843 0.9571,-9.1222 0.5175,5.7621 0.5103,14.5816 -0.016,19.5988 -0.5265,5.0172 -0.9499,0.3027 -0.941,-10.4766 z m -1631.76975,3.6747 c 0,-6.0633 0.47776,-8.5438 1.06169,-5.5121 0.58393,3.0317 0.58393,7.9926 0,11.0243 -0.58393,3.0317 -1.06169,0.5512 -1.06169,-5.5122 z m 1193.02535,-1.2249 c 0.027,-5.3896 0.5289,-7.306 1.1149,-4.2587 0.586,3.0474 0.5637,7.4572 -0.049,9.7994 -0.6132,2.3423 -1.0927,-0.151 -1.0655,-5.5407 z m 648.9781,1.2249 c 0,-3.3685 0.5561,-4.7465 1.2357,-3.0623 0.6796,1.6843 0.6796,4.4404 0,6.1246 -0.6796,1.6843 -1.2357,0.3063 -1.2357,-3.0623 z m -746.889,-13.4741 c 0.018,-6.7371 0.4941,-9.2024 1.0573,-5.4785 0.5631,3.7239 0.548,9.2361 -0.034,12.2492 -0.5815,3.0132 -1.0422,-0.034 -1.0238,-6.7707 z m 43.7833,-6.1246 c 0,-3.3686 0.5561,-4.7466 1.2357,-3.0623 0.6796,1.6842 0.6796,4.4403 0,6.1246 -0.6796,1.6842 -1.2357,0.3062 -1.2357,-3.0623 z m 435.8791,-1.4291 c 0.1176,-2.8539 0.6981,-3.4344 1.4802,-1.4801 0.7076,1.7685 0.6206,3.8815 -0.1935,4.6955 -0.814,0.8141 -1.393,-0.6329 -1.2867,-3.2154 z m 264.5834,0 c 0.1175,-2.8539 0.698,-3.4344 1.4801,-1.4801 0.7077,1.7685 0.6206,3.8815 -0.1934,4.6955 -0.8141,0.8141 -1.3931,-0.6329 -1.2867,-3.2154 z m 404.4179,-3.4706 c 0,-3.3686 0.556,-4.7466 1.2357,-3.0623 0.6796,1.6842 0.6796,4.4403 0,6.1246 -0.6797,1.6843 -1.2357,0.3062 -1.2357,-3.0623 z m -1837.38421,-9.7994 c 0,-3.3685 0.55605,-4.7466 1.23567,-3.0623 0.67962,1.6843 0.67962,4.4403 0,6.1246 -0.67962,1.6843 -1.23567,0.3062 -1.23567,-3.0623 z m 1430.51641,-3.8789 c 0.1176,-2.854 0.6981,-3.4345 1.4801,-1.4801 0.7077,1.7684 0.6207,3.8814 -0.1934,4.6955 -0.814,0.8141 -1.3931,-0.6329 -1.2867,-3.2154 z m -1834.93434,-2.4499 c 0.11755,-2.8539 0.69806,-3.4344 1.48011,-1.4801 0.70769,1.7685 0.62066,3.8815 -0.19341,4.6956 -0.81406,0.814 -1.39308,-0.6329 -1.2867,-3.2155 z m 1626.69744,-2.4498 c 0.1176,-2.8539 0.6981,-3.4345 1.4802,-1.4801 0.7076,1.7685 0.6206,3.8814 -0.1935,4.6955 -0.814,0.8141 -1.393,-0.6329 -1.2867,-3.2154 z M 242.07537,1262.4468 c 1.76848,-0.7077 3.88147,-0.6206 4.69554,0.1934 0.81406,0.8141 -0.63288,1.3931 -3.21543,1.2867 -2.85393,-0.1175 -3.43443,-0.698 -1.48011,-1.4801 z m 2202.41123,0 c 1.7684,-0.7077 3.8814,-0.6206 4.6955,0.1934 0.8141,0.8141 -0.6329,1.3931 -3.2154,1.2867 -2.8539,-0.1175 -3.4345,-0.698 -1.4801,-1.4801 z m -1380.8668,-35.0742 c 0,-3.3685 0.5561,-4.7465 1.2357,-3.0623 0.6796,1.6843 0.6796,4.4404 0,6.1247 -0.6796,1.6842 -1.2357,0.3062 -1.2357,-3.0624 z m -191.93411,-21.2722 c 1.76848,-0.7077 3.88147,-0.6207 4.69554,0.1934 0.81406,0.814 -0.63288,1.393 -3.21543,1.2867 -2.85393,-0.1176 -3.43443,-0.6981 -1.48011,-1.4801 z m 590.87211,-13.9505 c 0,-0.5088 1.9293,-2.438 4.2873,-4.2873 3.8855,-3.0473 3.9722,-2.9606 0.9249,0.925 -3.2004,4.0808 -5.2122,5.3786 -5.2122,3.3623 z m 261.821,-25.4109 c -3.0473,-3.8856 -2.9606,-3.9723 0.925,-0.925 4.0808,3.2004 5.3786,5.2122 3.3622,5.2122 -0.5087,0 -2.4379,-1.9293 -4.2872,-4.2872 z m 69.9003,-8.5745 -4.6669,-5.5121 5.5122,4.6669 c 3.0317,2.5668 5.5121,5.0473 5.5121,5.5121 0,1.9605 -1.9716,0.5132 -6.3574,-4.6669 z m -23.3532,-23.2735 c -3.0473,-3.8856 -2.9607,-3.9723 0.9249,-0.925 4.0809,3.2004 5.3786,5.2122 3.3623,5.2122 -0.5087,0 -2.438,-1.9292 -4.2872,-4.2872 z m -327.9668,-1.5374 c 0,-0.5088 1.9292,-2.438 4.2872,-4.2873 3.8856,-3.0473 3.9722,-2.9606 0.9249,0.925 -3.2004,4.0808 -5.2121,5.3786 -5.2121,3.3623 z m 197.9781,-3.1985 c 1.7685,-0.7076 3.8815,-0.6206 4.6955,0.1935 0.8141,0.814 -0.6328,1.393 -3.2154,1.2867 -2.8539,-0.1176 -3.4344,-0.6981 -1.4801,-1.4802 z m -54.0497,-2.5052 c 3.0317,-0.5839 7.9926,-0.5839 11.0243,0 3.0317,0.5839 0.5512,1.0617 -5.5122,1.0617 -6.0633,0 -8.5438,-0.4778 -5.5121,-1.0617 z m 29.3981,0.1064 c 1.6843,-0.6796 4.4404,-0.6796 6.1247,0 1.6842,0.6797 0.3062,1.2357 -3.0624,1.2357 -3.3685,0 -4.7465,-0.556 -3.0623,-1.2357 z m -56.3464,-53.8966 c 1.6843,-0.6796 4.4403,-0.6796 6.1246,0 1.6843,0.6797 0.3062,1.2357 -3.0623,1.2357 -3.3685,0 -4.7466,-0.556 -3.0623,-1.2357 z m 46.4924,-0.1456 c 4.3491,-0.5412 12.0661,-0.5501 17.1489,-0.02 5.0829,0.5304 1.5246,0.9732 -7.9073,0.984 -9.4319,0.011 -13.5906,-0.423 -9.2416,-0.9642 z m 127.7466,-34.3671 c -3.0473,-3.8856 -2.9606,-3.9722 0.9249,-0.925 4.0809,3.2004 5.3786,5.2122 3.3623,5.2122 -0.5087,0 -2.438,-1.9292 -4.2872,-4.2872 z m -696.7839,-8.5745 -9.6841,-10.4118 10.4119,9.6841 c 9.6829,9.0061 11.5376,11.1396 9.6841,11.1396 -0.4003,0 -5.0856,-4.6853 -10.4119,-10.4119 z m -628.35377,-15.924 -13.39047,-14.0866 14.08662,13.3905 c 7.74763,7.3647 14.08661,13.7037 14.08661,14.0866 0,1.8184 -2.3426,-0.3035 -14.78276,-13.3905 z m 1869.31587,0.6125 c 3.1646,-3.3685 6.305,-6.1246 6.9787,-6.1246 0.6737,0 -1.3643,2.7561 -4.5288,6.1246 -3.1646,3.3685 -6.305,6.1246 -6.9787,6.1246 -0.6737,0 1.3642,-2.7561 4.5288,-6.1246 z m -1902.53787,-31.23553 -4.66692,-5.51215 5.51215,4.66692 c 5.18006,4.38576 6.62742,6.35738 4.66693,6.35738 -0.46488,0 -2.94535,-2.48046 -5.51216,-5.51215 z m 231.93659,-3.26646 c 0.11755,-2.85393 0.69806,-3.43444 1.48011,-1.48011 0.70769,1.76848 0.62066,3.88147 -0.19341,4.69553 -0.81406,0.81407 -1.39308,-0.63287 -1.2867,-3.21542 z m 1469.90738,-2.44985 c 0.1175,-2.85393 0.698,-3.43443 1.4801,-1.48011 0.7077,1.76848 0.6207,3.88147 -0.1934,4.69554 -0.8141,0.81406 -1.3931,-0.63288 -1.2867,-3.21543 z m -888.8283,-2.71848 c 2.3836,-0.62115 5.6909,-0.5803 7.3495,0.0908 1.6587,0.67107 -0.2916,1.17928 -4.3338,1.12935 -4.0423,-0.0499 -5.3993,-0.59898 -3.0157,-1.22012 z m 1145.8687,-9.02662 c 0,-0.50872 1.9292,-2.43798 4.2872,-4.28723 3.8856,-3.04729 3.9722,-2.96064 0.9249,0.92495 -3.2004,4.08083 -5.2121,5.37859 -5.2121,3.36228 z M 735.61277,963.54145 c 2.38362,-0.62114 5.69091,-0.5803 7.34953,0.0908 1.65863,0.67107 -0.29161,1.17928 -4.33385,1.12935 -4.04225,-0.0499 -5.3993,-0.59898 -3.01568,-1.22012 z m 1344.49953,-2.1812 c 0.1176,-2.85393 0.6981,-3.43444 1.4801,-1.48012 0.7077,1.76848 0.6207,3.88147 -0.1934,4.69554 -0.814,0.81406 -1.393,-0.63288 -1.2867,-3.21542 z M 641.4002,924.36811 c 1.76848,-0.70768 3.88148,-0.62065 4.69554,0.19341 0.81406,0.81407 -0.63288,1.39308 -3.21542,1.28671 -2.85393,-0.11755 -3.43444,-0.69806 -1.48012,-1.48012 z m 1401.1586,0.051 c 1.6842,-0.67961 4.4403,-0.67961 6.1246,0 1.6843,0.67962 0.3062,1.23567 -3.0623,1.23567 -3.3686,0 -4.7466,-0.55605 -3.0623,-1.23567 z m -1354.72077,-2.6028 c 4.40323,-0.54524 11.01781,-0.53399 14.69907,0.025 3.68126,0.55899 0.0786,1.0051 -8.00587,0.99135 -8.08449,-0.0138 -11.09643,-0.47111 -6.6932,-1.01635 z m 1326.54747,0.0867 c 2.358,-0.6162 6.2165,-0.6162 8.5745,0 2.358,0.61621 0.4287,1.12037 -4.2872,1.12037 -4.716,0 -6.6452,-0.50416 -4.2873,-1.12037 z M 1671.6643,856.221 c -0.01,-12.12674 0.4068,-17.39655 0.9206,-11.71069 0.5138,5.68586 0.5199,15.60774 0.014,22.04861 -0.5064,6.44088 -0.9267,1.78881 -0.9342,-10.33792 z m 384.9811,-25.72338 c 2.4388,-2.69483 4.9854,-4.89969 5.6591,-4.89969 0.6737,0 -0.7705,2.20486 -3.2093,4.89969 -2.4388,2.69483 -4.9853,4.89969 -5.6591,4.89969 -0.6737,0 0.7705,-2.20486 3.2093,-4.89969 z M 612.14891,816.41105 c -3.04729,-3.88559 -2.96064,-3.97225 0.92495,-0.92495 2.35798,1.84925 4.28723,3.7785 4.28723,4.28723 0,2.0163 -2.01178,0.71854 -5.21218,-3.36228 z m 407.18029,-2.04154 c 0.1175,-2.85393 0.698,-3.43444 1.4801,-1.48012 0.7077,1.76849 0.6206,3.88148 -0.1934,4.69554 -0.8141,0.81407 -1.3931,-0.63288 -1.2867,-3.21542 z m 1063.0396,-7.14538 c 3.1645,-3.36854 6.305,-6.12462 6.9787,-6.12462 0.6737,0 -1.3643,2.75608 -4.5289,6.12462 -3.1646,3.36853 -6.305,6.12461 -6.9787,6.12461 -0.6737,0 1.3643,-2.75608 4.5289,-6.12461 z M 590.1003,796.81228 c -3.04729,-3.88559 -2.96064,-3.97224 0.92495,-0.92495 2.35798,1.84925 4.28723,3.77851 4.28723,4.28723 0,2.01631 -2.01178,0.71855 -5.21218,-3.36228 z m 1468.9949,-42.25983 c 8.0002,-8.08449 15.0969,-14.69908 15.7706,-14.69908 0.6738,0 -5.3206,6.61459 -13.3207,14.69908 -8.0002,8.08449 -15.0969,14.69907 -15.7706,14.69907 -0.6738,0 5.3206,-6.61458 13.3207,-14.69907 z M 634.19752,760.0646 c -3.04729,-3.88559 -2.96064,-3.97224 0.92495,-0.92495 2.35798,1.84925 4.28723,3.7785 4.28723,4.28723 0,2.0163 -2.01178,0.71854 -5.21218,-3.36228 z M 1830.0347,748.42783 c 4.5708,-4.71595 8.8619,-8.57446 9.5356,-8.57446 0.6737,0 -2.5149,3.85851 -7.0858,8.57446 -4.5709,4.71595 -8.8619,8.57446 -9.5356,8.57446 -0.6737,0 2.5149,-3.85851 7.0858,-8.57446 z m -980.12369,-10.41184 -5.9392,-6.73708 6.73708,5.9392 c 6.29681,5.55107 7.86054,7.53495 5.93919,7.53495 -0.43883,0 -3.47052,-3.03168 -6.73707,-6.73707 z m -428.53757,1.0708 c 0,-0.42161 3.5829,-4.00451 7.962,-7.96199 l 7.962,-7.19542 -7.19542,7.96199 c -6.70714,7.4217 -8.72858,9.08808 -8.72858,7.19542 z m 183.42593,-8.42034 c -3.04729,-3.88559 -2.96064,-3.97224 0.92496,-0.92495 2.35797,1.84925 4.28723,3.77851 4.28723,4.28723 0,2.01631 -2.01178,0.71855 -5.21219,-3.36228 z m 226.7691,-11.0243 -7.19542,-7.962 7.96199,7.19542 c 7.4217,6.70714 9.08808,8.72857 7.19542,8.72857 -0.42161,0 -4.00451,-3.58289 -7.96199,-7.96199 z m 1025.41453,1.83738 c 3.1645,-3.36854 6.305,-6.12461 6.9787,-6.12461 0.6737,0 -1.3643,2.75607 -4.5289,6.12461 -3.1646,3.36854 -6.305,6.12461 -6.9787,6.12461 -0.6737,0 1.3643,-2.75607 4.5289,-6.12461 z m -756.3351,-62.47106 c 0,-6.06337 0.4778,-8.54384 1.0617,-5.51216 0.5839,3.03169 0.5839,7.99263 0,11.02431 -0.5839,3.03168 -1.0617,0.55122 -1.0617,-5.51215 z m 61.238,5.65181 c 2.3836,-0.62114 5.6909,-0.58029 7.3495,0.0908 1.6587,0.67107 -0.2916,1.17928 -4.3338,1.12935 -4.0423,-0.0499 -5.3993,-0.59898 -3.0157,-1.22013 z m 319.8113,-7.32534 c 1.7685,-0.70768 3.8815,-0.62065 4.6956,0.19341 0.814,0.81407 -0.6329,1.39308 -3.2154,1.28671 -2.854,-0.11755 -3.4345,-0.69806 -1.4802,-1.48012 z m -14.699,-2.44984 c 1.7685,-0.70769 3.8814,-0.62066 4.6955,0.19341 0.8141,0.81406 -0.6329,1.39308 -3.2154,1.2867 -2.8539,-0.11755 -3.4345,-0.69806 -1.4801,-1.48011 z m -232.7354,-2.44985 c 1.7685,-0.70769 3.8815,-0.62065 4.6956,0.19341 0.814,0.81406 -0.6329,1.39308 -3.2154,1.28671 -2.854,-0.11756 -3.4345,-0.69806 -1.4802,-1.48012 z m 210.5336,0.051 c 1.6843,-0.67962 4.4404,-0.67962 6.1247,0 1.6842,0.67962 0.3062,1.23567 -3.0623,1.23567 -3.3686,0 -4.7466,-0.55605 -3.0624,-1.23567 z m -180.0636,-2.5161 c 2.358,-0.6162 6.2165,-0.6162 8.5745,0 2.3579,0.6162 0.4287,1.12037 -4.2873,1.12037 -4.7159,0 -6.6452,-0.50417 -4.2872,-1.12037 z m 150.6941,-0.0439 c 3.0474,-0.58599 7.4571,-0.56374 9.7993,0.0494 2.3423,0.61318 -0.151,1.09262 -5.5407,1.06543 -5.3896,-0.0272 -7.306,-0.52888 -4.2586,-1.11487 z M 745.23066,621.03586 c 0.0499,-4.04224 0.59898,-5.3993 1.22012,-3.01568 0.62115,2.38362 0.5803,5.69091 -0.0908,7.34954 -0.67107,1.65862 -1.17928,-0.29161 -1.12935,-4.33386 z m 49.27845,-7.34954 c 0.0138,-8.08449 0.4711,-11.09643 1.01635,-6.6932 0.54524,4.40323 0.53399,11.01782 -0.025,14.69908 -0.55899,3.68126 -1.00509,0.0786 -0.99134,-8.00588 z m 340.76159,7.962 -4.667,-5.51215 5.5122,4.66692 c 3.0317,2.56681 5.5122,5.04728 5.5122,5.51216 0,1.96049 -1.9717,0.51314 -6.3574,-4.66693 z m 758.9375,-0.61246 c 0.05,-4.04224 0.599,-5.3993 1.2202,-3.01568 0.6211,2.38362 0.5803,5.69091 -0.091,7.34954 -0.6711,1.65862 -1.1793,-0.29161 -1.1294,-4.33386 z m -334.8815,-11.0243 c 2.4388,-2.69483 4.9854,-4.8997 5.6591,-4.8997 0.6737,0 -0.7704,2.20487 -3.2092,4.8997 -2.4388,2.69483 -4.9854,4.89969 -5.6591,4.89969 -0.6737,0 0.7704,-2.20486 3.2092,-4.89969 z m 334.9723,-9.79939 c 0,-4.71595 0.5042,-6.6452 1.1204,-4.28723 0.6162,2.35798 0.6162,6.21649 0,8.57446 -0.6162,2.35798 -1.1204,0.42873 -1.1204,-4.28723 z M 745.23066,564.68941 c 0.0499,-4.04224 0.59898,-5.3993 1.22012,-3.01568 0.62115,2.38362 0.5803,5.69091 -0.0908,7.34954 -0.67107,1.65862 -1.17928,-0.29161 -1.12935,-4.33386 z m 1200.33354,-8.57446 c 0,-3.36854 0.5561,-4.74657 1.2357,-3.0623 0.6796,1.68426 0.6796,4.44034 0,6.12461 -0.6796,1.68427 -1.2357,0.30623 -1.2357,-3.06231 z M 504.8616,478.74066 c 0.11756,-2.85393 0.69806,-3.43444 1.48012,-1.48011 0.70769,1.76848 0.62065,3.88147 -0.19341,4.69553 -0.81406,0.81407 -1.39308,-0.63287 -1.28671,-3.21542 z m 90.64429,-12.24923 c 0.11755,-2.85393 0.69806,-3.43443 1.48012,-1.48011 0.70768,1.76848 0.62065,3.88147 -0.19341,4.69554 -0.81407,0.81406 -1.39308,-0.63288 -1.28671,-3.21543 z m 1104.68691,0.50413 c 0,-0.50873 1.9293,-2.43798 4.2873,-4.28723 3.8856,-3.04729 3.9722,-2.96064 0.9249,0.92495 -3.2004,4.08083 -5.2122,5.37858 -5.2122,3.36228 z m 397.0684,-7.85366 c 0.1176,-2.85393 0.6981,-3.43444 1.4802,-1.48012 0.7076,1.76848 0.6206,3.88148 -0.1934,4.69554 -0.8141,0.81406 -1.3931,-0.63288 -1.2868,-3.21542 z m -373.7948,-15.71985 c 8.0001,-8.08449 15.0969,-14.69907 15.7706,-14.69907 0.6737,0 -5.3206,6.61458 -13.3208,14.69907 -8.0001,8.08449 -15.0969,14.69908 -15.7706,14.69908 -0.6737,0 5.3206,-6.61459 13.3208,-14.69908 z m -1218.41139,0 c 0,-3.36853 0.55605,-4.74657 1.23567,-3.0623 0.67962,1.68427 0.67962,4.44034 0,6.12461 -0.67962,1.68427 -1.23567,0.30623 -1.23567,-3.06231 z m 1592.39969,-26.9483 c 0,-3.36854 0.556,-4.74657 1.2356,-3.0623 0.6796,1.68426 0.6796,4.44034 0,6.12461 -0.6796,1.68427 -1.2356,0.30623 -1.2356,-3.06231 z m -1172.7921,-12.86169 -7.19542,-7.962 7.962,7.19542 c 7.42169,6.70714 9.08807,8.72858 7.19542,8.72858 -0.42162,0 -4.00452,-3.5829 -7.962,-7.962 z m -329.15671,-8.16615 c 0.11755,-2.85393 0.69806,-3.43444 1.48012,-1.48011 0.70768,1.76848 0.62065,3.88147 -0.19341,4.69553 -0.81407,0.81407 -1.39308,-0.63287 -1.28671,-3.21542 z M 1779.8128,384.62576 c 6.6358,-6.73708 12.6163,-12.24923 13.29,-12.24923 0.6737,0 -4.2044,5.51215 -10.8401,12.24923 -6.6358,6.73708 -12.6163,12.24923 -13.29,12.24923 -0.6737,0 4.2044,-5.51215 10.8401,-12.24923 z M 1434.9971,260.51099 c 1.6842,-0.67961 4.4403,-0.67961 6.1246,0 1.6842,0.67962 0.3062,1.23567 -3.0623,1.23567 -3.3686,0 -4.7466,-0.55605 -3.0623,-1.23567 z m -47.772,-2.5161 c 2.3579,-0.6162 6.2165,-0.6162 8.5744,0 2.358,0.61621 0.4288,1.12037 -4.2872,1.12037 -4.7159,0 -6.6452,-0.50416 -4.2872,-1.12037 z"
         id="path7" /><path
         style="fill:#d18a71"
         d="m 1427.6475,2538.8674 c 1.6843,-0.6796 4.4404,-0.6796 6.1246,0 1.6843,0.6796 0.3063,1.2357 -3.0623,1.2357 -3.3685,0 -4.7465,-0.5561 -3.0623,-1.2357 z M 932.16625,2386.1496 c 2.43879,-2.6948 4.98538,-4.8997 5.65908,-4.8997 0.67371,0 -0.77044,2.2049 -3.20923,4.8997 -2.43879,2.6948 -4.98538,4.8997 -5.65908,4.8997 -0.67371,0 0.77044,-2.2049 3.20923,-4.8997 z m 23.27354,-25.4234 c 0,-0.5087 1.92925,-2.438 4.28723,-4.2872 3.88559,-3.0473 3.97224,-2.9607 0.92495,0.9249 -3.20041,4.0809 -5.21218,5.3786 -5.21218,3.3623 z m 744.75301,-34.5978 c -5.9507,-6.0634 -10.2683,-11.0243 -9.5946,-11.0243 0.6737,0 6.0937,4.9609 12.0445,11.0243 5.9507,6.0634 10.2683,11.0243 9.5946,11.0243 -0.6737,0 -6.0937,-4.9609 -12.0445,-11.0243 z m -695.202,-19.7916 c 2.3259,-2.4284 4.7563,-3.8879 5.4008,-3.2434 0.6445,0.6445 -1.2585,2.6314 -4.2289,4.4152 -5.1602,3.0989 -5.2124,3.0467 -1.1719,-1.1718 z m 288.0683,-169.2951 c 1.7685,-0.7077 3.8815,-0.6207 4.6956,0.1934 0.814,0.8141 -0.6329,1.3931 -3.2155,1.2867 -2.8539,-0.1176 -3.4344,-0.6981 -1.4801,-1.4801 z m -607.41482,-46.7109 c -3.04729,-3.8856 -2.96064,-3.9723 0.92495,-0.925 2.35798,1.8493 4.28723,3.7785 4.28723,4.2872 0,2.0163 -2.01178,0.7186 -5.21218,-3.3622 z m 1330.57862,-13.7867 c 0,-0.5087 1.9293,-2.438 4.2873,-4.2872 3.8856,-3.0473 3.9722,-2.9606 0.9249,0.9249 -3.2004,4.0809 -5.2122,5.3786 -5.2122,3.3623 z m 17.149,-17.4489 c 3.1645,-3.3685 6.3049,-6.1246 6.9786,-6.1246 0.6738,0 -1.3642,2.7561 -4.5288,6.1246 -3.1646,3.3686 -6.305,6.1246 -6.9787,6.1246 -0.6737,0 1.3643,-2.756 4.5289,-6.1246 z m -1590.40919,-5.3483 c 1.76848,-0.7077 3.88147,-0.6206 4.69554,0.1934 0.81406,0.8141 -0.63288,1.3931 -3.21543,1.2868 -2.85393,-0.1176 -3.43443,-0.6981 -1.48011,-1.4802 z m 430.17448,-96.9327 -4.66692,-5.5122 5.51215,4.6669 c 5.18006,4.3858 6.62742,6.3574 4.66692,6.3574 -0.46487,0 -2.94534,-2.4804 -5.51215,-5.5121 z m 967.92181,-26.3359 c 9.3596,-9.4319 17.5687,-17.1489 18.2424,-17.1489 0.6737,0 -6.433,7.717 -15.7926,17.1489 -9.3596,9.4319 -17.5687,17.149 -18.2424,17.149 -0.6737,0 6.4329,-7.7171 15.7926,-17.149 z m -1016.91872,-22.661 -4.66693,-5.5122 5.51216,4.6669 c 5.18006,4.3858 6.62742,6.3574 4.66692,6.3574 -0.46487,0 -2.94534,-2.4805 -5.51215,-5.5121 z m 1215.20202,-36.7477 -7.1954,-7.962 7.962,7.1954 c 7.4217,6.7071 9.0881,8.7286 7.1954,8.7286 -0.4216,0 -4.0045,-3.5829 -7.962,-7.962 z m 59.8629,-6.1246 c -3.0473,-3.8856 -2.9606,-3.9723 0.9249,-0.925 2.358,1.8493 4.2873,3.7785 4.2873,4.2872 0,2.0164 -2.0118,0.7186 -5.2122,-3.3622 z m -22.0486,-19.5988 c -3.0473,-3.8856 -2.9607,-3.9722 0.9249,-0.925 2.358,1.8493 4.2873,3.7786 4.2873,4.2873 0,2.0163 -2.0118,0.7185 -5.2122,-3.3623 z m -72.1121,-6.1246 -7.1954,-7.962 7.962,7.1954 c 7.4217,6.7071 9.0881,8.7286 7.1954,8.7286 -0.4216,0 -4.0045,-3.5829 -7.962,-7.962 z m 39.1189,-24.4985 -4.6669,-5.5121 5.5121,4.6669 c 3.0317,2.5668 5.5122,5.0473 5.5122,5.5122 0,1.9605 -1.9717,0.5131 -6.3574,-4.667 z m -94.0863,-10.1118 c 0,-0.5088 1.9293,-2.438 4.2872,-4.2873 3.8856,-3.0473 3.9723,-2.9606 0.925,0.925 -3.2004,4.0808 -5.2122,5.3786 -5.2122,3.3623 z m 354.9151,-22.9611 c -3.0473,-3.8856 -2.9606,-3.9722 0.925,-0.9249 2.358,1.8492 4.2872,3.7785 4.2872,4.2872 0,2.0163 -2.0118,0.7185 -5.2122,-3.3623 z m -301.331,-4.8997 c -3.0473,-3.8856 -2.9606,-3.9722 0.925,-0.9249 2.3579,1.8492 4.2872,3.7785 4.2872,4.2872 0,2.0163 -2.0118,0.7185 -5.2122,-3.3623 z m 147.1178,-36.7477 -5.9392,-6.737 6.7371,5.9392 c 3.7054,3.2665 6.7371,6.2982 6.7371,6.737 0,1.9214 -1.9839,0.3577 -7.535,-5.9392 z m -193.3524,-6.737 c -5.9507,-6.0634 -10.2683,-11.0243 -9.5946,-11.0243 0.6737,0 6.0937,4.9609 12.0445,11.0243 5.9507,6.0633 10.2683,11.0243 9.5946,11.0243 -0.6737,0 -6.0937,-4.961 -12.0445,-11.0243 z m 301.0186,6.737 c -3.0473,-3.8856 -2.9607,-3.9722 0.9249,-0.9249 2.358,1.8492 4.2872,3.7785 4.2872,4.2872 0,2.0163 -2.0117,0.7186 -5.2121,-3.3623 z m -66.1459,-22.0486 c -3.0473,-3.8856 -2.9606,-3.9722 0.925,-0.9249 4.0808,3.2004 5.3786,5.2122 3.3623,5.2122 -0.5088,0 -2.438,-1.9293 -4.2873,-4.2873 z m -75.8181,-9.7994 -5.9392,-6.737 6.7371,5.9392 c 3.7054,3.2665 6.737,6.2982 6.737,6.737 0,1.9214 -1.9838,0.3577 -7.5349,-5.9392 z m -38.02,-35.5227 -4.6669,-5.5122 5.5122,4.667 c 3.0316,2.5668 5.5121,5.0472 5.5121,5.5121 0,1.9605 -1.9716,0.5131 -6.3574,-4.6669 z m -200.7312,-17.1489 -14.6224,-15.3116 15.3115,14.6224 c 14.2231,13.583 16.4326,16.0007 14.6224,16.0007 -0.379,0 -7.2692,-6.8902 -15.3115,-15.3115 z m 252.2955,2.4498 -9.6841,-10.4118 10.4118,9.6841 c 5.7265,5.3262 10.4119,10.0116 10.4119,10.4118 0,1.8535 -2.1335,0 -11.1396,-9.6841 z m -119.0148,-47.772 c -3.0472,-3.8856 -2.9606,-3.9722 0.925,-0.9249 4.0808,3.2004 5.3786,5.2122 3.3623,5.2122 -0.5087,0 -2.438,-1.9293 -4.2873,-4.2873 z m 42.1533,-46.1387 c 0.1176,-2.854 0.6981,-3.4345 1.4801,-1.4802 0.7077,1.7685 0.6207,3.8815 -0.1934,4.6956 -0.814,0.814 -1.3931,-0.6329 -1.2867,-3.2154 z m 0,-12.2493 c 0.1176,-2.8539 0.6981,-3.4344 1.4801,-1.4801 0.7077,1.7685 0.6207,3.8815 -0.1934,4.6956 -0.814,0.814 -1.3931,-0.6329 -1.2867,-3.2155 z m -458.7739,-44.3416 c 1.7685,-0.7077 3.8815,-0.6207 4.6956,0.1934 0.814,0.814 -0.6329,1.3931 -3.2154,1.2867 -2.854,-0.1176 -3.4345,-0.6981 -1.4802,-1.4801 z m 19.4457,0.051 c 1.6843,-0.6796 4.4403,-0.6796 6.1246,0 1.6843,0.6796 0.3062,1.2357 -3.0623,1.2357 -3.3685,0 -4.7466,-0.5561 -3.0623,-1.2357 z m -988.73835,-27.7757 c 0,-3.3685 0.55605,-4.7465 1.23566,-3.0623 0.67962,1.6843 0.67962,4.4404 0,6.1247 -0.67961,1.6842 -1.23566,0.3062 -1.23566,-3.0624 z m -406.23754,-34.2978 c 0,-10.1056 0.43244,-14.2397 0.96098,-9.1869 0.52854,5.0528 0.52854,13.321 0,18.3738 -0.52854,5.0528 -0.96098,0.9187 -0.96098,-9.1869 z m 1259.38919,11.6368 -4.667,-5.5122 5.5122,4.6669 c 5.18,4.3858 6.6274,6.3574 4.6669,6.3574 -0.4649,0 -2.9453,-2.4804 -5.5121,-5.5121 z m 587.1642,1.6332 c 0.1175,-2.8539 0.698,-3.4344 1.4801,-1.4801 0.7077,1.7685 0.6206,3.8815 -0.1934,4.6955 -0.8141,0.8141 -1.3931,-0.6329 -1.2867,-3.2154 z m -318.6734,-14.1949 c 0,-0.5088 1.9293,-2.438 4.2872,-4.2873 3.8856,-3.0473 3.9723,-2.9606 0.925,0.925 -3.2004,4.0808 -5.2122,5.3786 -5.2122,3.3623 z m 321.7858,-45.6222 c 0,-11.453 0.422,-16.1383 0.9378,-10.4118 0.5158,5.7265 0.5158,15.0972 0,20.8237 -0.5158,5.7265 -0.9378,1.0412 -0.9378,-10.4119 z m -1847.562,-64.9209 c 0.0499,-4.0422 0.59898,-5.3993 1.22012,-3.0157 0.62115,2.3837 0.5803,5.691 -0.0908,7.3496 -0.67107,1.6586 -1.17928,-0.2916 -1.12935,-4.3339 z m 1138.894,-0.2041 c 0.1176,-2.854 0.6981,-3.4345 1.4801,-1.4801 0.7077,1.7684 0.6207,3.8814 -0.1934,4.6955 -0.814,0.8141 -1.3931,-0.6329 -1.2867,-3.2154 z m 53.8966,-4.8997 c 0.1176,-2.8539 0.6981,-3.4345 1.4801,-1.4801 0.7077,1.7685 0.6207,3.8814 -0.1934,4.6955 -0.814,0.8141 -1.3931,-0.6329 -1.2867,-3.2154 z m -788.65685,-18.1697 c 0,-3.3685 0.55605,-4.7466 1.23566,-3.0623 0.67962,1.6843 0.67962,4.4403 0,6.1246 -0.67961,1.6843 -1.23566,0.3062 -1.23566,-3.0623 z m 734.76025,-3.8789 c 0.1176,-2.854 0.6981,-3.4345 1.4801,-1.4801 0.7077,1.7684 0.6207,3.8814 -0.1934,4.6955 -0.814,0.8141 -1.3931,-0.6329 -1.2867,-3.2154 z m 53.8966,-2.4499 c 0.1176,-2.8539 0.6981,-3.4344 1.4801,-1.4801 0.7077,1.7685 0.6207,3.8815 -0.1934,4.6956 -0.814,0.814 -1.3931,-0.6329 -1.2867,-3.2155 z m 1051.1772,-1.0207 c 0,-3.3686 0.556,-4.7466 1.2357,-3.0623 0.6796,1.6842 0.6796,4.4403 0,6.1246 -0.6797,1.6842 -1.2357,0.3062 -1.2357,-3.0623 z m -2241.80214,-18.578 c 0.11755,-2.854 0.69806,-3.4345 1.48011,-1.4801 0.70769,1.7684 0.62066,3.8814 -0.19341,4.6955 -0.81406,0.8141 -1.39308,-0.6329 -1.2867,-3.2154 z m 1558.97924,-138.8246 -7.1955,-7.962 7.962,7.1954 c 4.3791,3.9575 7.962,7.5404 7.962,7.962 0,1.8927 -2.0214,0.2263 -8.7285,-7.1954 z m -207.4703,-18.159 c 1.6842,-0.6796 4.4403,-0.6796 6.1246,0 1.6842,0.6797 0.3062,1.2357 -3.0623,1.2357 -3.3686,0 -4.7466,-0.556 -3.0623,-1.2357 z m -0.055,-54.0422 c 4.3491,-0.5412 12.0661,-0.5501 17.1489,-0.02 5.0829,0.5304 1.5246,0.9732 -7.9073,0.984 -9.4319,0.011 -13.5906,-0.423 -9.2416,-0.9642 z M 425.96064,1031.9975 c -3.04729,-3.8856 -2.96063,-3.9723 0.92496,-0.925 2.35797,1.8493 4.28723,3.7785 4.28723,4.2872 0,2.0163 -2.01178,0.7186 -5.21219,-3.3622 z m -34.29783,-34.29788 c -3.0473,-3.88559 -2.96064,-3.97224 0.92495,-0.92495 2.35797,1.84925 4.28723,3.77853 4.28723,4.28723 0,2.0163 -2.01178,0.7185 -5.21218,-3.36228 z m 214.01742,-42.25983 c 0,-4.71596 0.50417,-6.64521 1.12038,-4.28723 0.6162,2.35797 0.6162,6.21648 0,8.57446 -0.61621,2.35797 -1.12038,0.42872 -1.12038,-4.28723 z m 67.41485,-33.47048 c 1.68427,-0.67962 4.44034,-0.67962 6.12461,0 1.68427,0.67961 0.30623,1.23566 -3.0623,1.23566 -3.36854,0 -4.74658,-0.55605 -3.06231,-1.23566 z m 1354.91772,-0.051 c 1.7685,-0.70769 3.8815,-0.62066 4.6956,0.19341 0.814,0.81406 -0.6329,1.39308 -3.2155,1.2867 -2.8539,-0.11755 -3.4344,-0.69806 -1.4801,-1.48011 z m -66.2989,-2.39881 c 1.6842,-0.67962 4.4403,-0.67962 6.1246,0 1.6842,0.67962 0.3062,1.23567 -3.0623,1.23567 -3.3686,0 -4.7466,-0.55605 -3.0623,-1.23567 z m -17.6568,-3.10792 c -0.7752,-1.25432 -0.4728,-2.85947 0.672,-3.56701 1.1449,-0.70754 2.0815,0.31872 2.0815,2.28057 0,4.13085 -0.7725,4.49177 -2.7535,1.28644 z m -1324.55865,-92.651 c -3.04729,-3.88559 -2.96064,-3.97224 0.92495,-0.92495 2.35798,1.84925 4.28723,3.77851 4.28723,4.28723 0,2.01631 -2.01178,0.71855 -5.21218,-3.36228 z m 1450.62105,-3.98725 c 0,-0.50873 1.9293,-2.43798 4.2873,-4.28723 3.8856,-3.0473 3.9722,-2.96064 0.9249,0.92495 -3.2004,4.08082 -5.2122,5.37858 -5.2122,3.36228 z M 972.5887,741.37827 c 0,-0.50873 1.92926,-2.43798 4.28723,-4.28723 3.8856,-3.0473 3.97225,-2.96064 0.92496,0.92495 -3.20041,4.08082 -5.21219,5.37858 -5.21219,3.36228 z m 872.145,-7.64951 c 3.1646,-3.36854 6.305,-6.12462 6.9787,-6.12462 0.6737,0 -1.3642,2.75608 -4.5288,6.12462 -3.1646,3.36854 -6.305,6.12461 -6.9787,6.12461 -0.6737,0 1.3643,-2.75607 4.5288,-6.12461 z m -617.8204,-81.29351 c 1.7685,-0.70769 3.8815,-0.62065 4.6955,0.19341 0.8141,0.81406 -0.6328,1.39308 -3.2154,1.28671 -2.8539,-0.11756 -3.4344,-0.69806 -1.4801,-1.48012 z m 29.3981,-2.44984 c 1.7685,-0.70769 3.8815,-0.62066 4.6956,0.19341 0.814,0.81406 -0.6329,1.39308 -3.2154,1.2867 -2.854,-0.11755 -3.4345,-0.69806 -1.4802,-1.48011 z m 82.0186,-2.59533 c 9.1511,-0.47264 23.4827,-0.46914 31.848,0.008 8.3653,0.47693 0.8781,0.86364 -16.6383,0.85935 -17.5164,-0.004 -24.3607,-0.3945 -15.2097,-0.86714 z m -299.5955,-23.6044 c 0,-0.50873 1.9293,-2.43798 4.2873,-4.28723 3.8856,-3.04729 3.9722,-2.96064 0.9249,0.92495 -3.2004,4.08082 -5.2122,5.37858 -5.2122,3.36228 z m 602.3496,-5.81213 c -3.0473,-3.88559 -2.9607,-3.97224 0.9249,-0.92495 4.0808,3.20041 5.3786,5.21218 3.3623,5.21218 -0.5087,0 -2.438,-1.92925 -4.2872,-4.28723 z m 252.84,-6.94123 c 0.1175,-2.85393 0.698,-3.43443 1.4801,-1.48011 0.7077,1.76848 0.6206,3.88147 -0.1934,4.69554 -0.8141,0.81406 -1.3931,-0.63288 -1.2867,-3.21543 z m -308.2278,-10.12826 c 3.7239,-0.56311 9.236,-0.54806 12.2492,0.0334 3.0131,0.5815 -0.034,1.04222 -6.7708,1.02383 -6.7371,-0.0184 -9.2024,-0.49417 -5.4784,-1.05727 z m -610.78963,-144.62032 -8.44258,-9.18692 9.18692,8.44258 c 5.05281,4.64342 9.18692,8.77753 9.18692,9.18692 0,1.87075 -2.0731,0.10841 -9.93126,-8.44258 z m -21.91673,-21.43615 c -5.95075,-6.06336 -10.26832,-11.0243 -9.59461,-11.0243 0.6737,0 6.09371,4.96094 12.04446,11.0243 5.95074,6.06337 10.26832,11.02431 9.59461,11.02431 -0.67371,0 -6.09371,-4.96094 -12.04446,-11.02431 z m 786.40046,-6.89119 c 0,-0.42162 3.5829,-4.00451 7.962,-7.962 l 7.962,-7.19542 -7.1954,7.962 c -6.7072,7.4217 -8.7286,9.08808 -8.7286,7.19542 z m -827.05568,-36.59356 -4.66692,-5.51216 5.51215,4.66693 c 5.18006,4.38576 6.62742,6.35738 4.66692,6.35738 -0.46487,0 -2.94534,-2.48047 -5.51215,-5.51215 z M 1376.2008,258.06115 c 1.6842,-0.67962 4.4403,-0.67962 6.1246,0 1.6843,0.67962 0.3062,1.23567 -3.0623,1.23567 -3.3686,0 -4.7466,-0.55605 -3.0623,-1.23567 z"
         id="path6" /><path
         style="fill:#778697"
         d="m 1285.5565,2083.1961 c 1.6842,-0.6796 4.4403,-0.6796 6.1246,0 1.6843,0.6796 0.3062,1.2357 -3.0623,1.2357 -3.3686,0 -4.7466,-0.5561 -3.0623,-1.2357 z m 110.3961,-0.051 c 1.7685,-0.7077 3.8815,-0.6207 4.6956,0.1934 0.814,0.8141 -0.6329,1.3931 -3.2154,1.2867 -2.854,-0.1176 -3.4345,-0.6981 -1.4802,-1.4801 z m 351.2649,-146.5422 c 0.05,-4.0422 0.599,-5.3993 1.2201,-3.0156 0.6212,2.3836 0.5803,5.6909 -0.091,7.3495 -0.6711,1.6586 -1.1793,-0.2916 -1.1294,-4.3339 z m -370.8636,-132.7402 c 1.7685,-0.7077 3.8815,-0.6207 4.6955,0.1934 0.8141,0.8141 -0.6329,1.3931 -3.2154,1.2867 -2.8539,-0.1176 -3.4344,-0.6981 -1.4801,-1.4801 z m 38.4319,-15.4754 c 2.4388,-2.6948 4.9854,-4.8997 5.6591,-4.8997 0.6737,0 -0.7704,2.2049 -3.2092,4.8997 -2.4388,2.6948 -4.9854,4.8997 -5.6591,4.8997 -0.6737,0 0.7704,-2.2049 3.2092,-4.8997 z m -82.5659,-36.1224 c 11.1801,-0.455 28.819,-0.4524 39.1975,0.01 10.3785,0.458 1.2311,0.8303 -20.3275,0.8272 -21.5587,0 -30.0502,-0.3779 -18.87,-0.8329 z m -80.8081,-34.1468 c 1.7684,-0.7077 3.8814,-0.6207 4.6955,0.1934 0.8141,0.8141 -0.6329,1.3931 -3.2154,1.2867 -2.854,-0.1175 -3.4345,-0.6981 -1.4801,-1.4801 z m -35.2962,-13.638 -4.6669,-5.5122 5.5121,4.667 c 5.1801,4.3857 6.6274,6.3573 4.6669,6.3573 -0.4648,0 -2.9453,-2.4804 -5.5121,-5.5121 z m 274.0912,-32.4605 c 0.018,-6.7371 0.4942,-9.2024 1.0573,-5.4784 0.5631,3.7239 0.548,9.236 -0.034,12.2492 -0.5815,3.0131 -1.0422,-0.034 -1.0238,-6.7708 z m -289.3956,-23.2735 c 0,-3.3685 0.556,-4.7466 1.2356,-3.0623 0.6796,1.6843 0.6796,4.4403 0,6.1246 -0.6796,1.6843 -1.2356,0.3062 -1.2356,-3.0623 z m 286.4385,-13.6783 c 0.1175,-2.8539 0.6981,-3.4345 1.4801,-1.4801 0.7077,1.7685 0.6207,3.8814 -0.1934,4.6955 -0.8141,0.8141 -1.3931,-0.6329 -1.2867,-3.2154 z m -232.4512,-9.5952 c 0.05,-4.0423 0.599,-5.3993 1.2202,-3.0157 0.6211,2.3836 0.5803,5.6909 -0.091,7.3495 -0.6711,1.6586 -1.1793,-0.2916 -1.1294,-4.3338 z m 230.0013,-14.9033 c 0.1176,-2.8539 0.6981,-3.4344 1.4802,-1.4801 0.7076,1.7685 0.6206,3.8815 -0.1934,4.6956 -0.8141,0.814 -1.3931,-0.6329 -1.2868,-3.2155 z m 162.7214,-8.3703 c -3.9943,-1.7164 -4.1342,-2.1373 -0.7571,-2.2776 2.2785,-0.095 4.824,0.9302 5.6568,2.2776 1.741,2.8171 1.6558,2.8171 -4.8997,0 z m -64.2619,-4.1475 c 2.3837,-0.6212 5.691,-0.5803 7.3496,0.091 1.6586,0.6711 -0.2916,1.1793 -4.3339,1.1294 -4.0422,-0.05 -5.3993,-0.599 -3.0157,-1.2201 z m -248.7059,-7.458 c 7.0739,-0.4949 18.6494,-0.4949 25.7234,0 7.0739,0.4949 1.2861,0.8998 -12.8617,0.8998 -14.1479,0 -19.9356,-0.4049 -12.8617,-0.8998 z m 215.7395,-239.9523 c 1.7685,-0.7076 3.8815,-0.6206 4.6956,0.1935 0.814,0.814 -0.6329,1.393 -3.2155,1.2867 -2.8539,-0.1176 -3.4344,-0.6981 -1.4801,-1.4802 z m -234.5324,-31.6035 c 0.1176,-2.8539 0.6981,-3.4344 1.4801,-1.4801 0.7077,1.7685 0.6207,3.8815 -0.1934,4.6955 -0.8141,0.8141 -1.3931,-0.6329 -1.2867,-3.2154 z m 226.4173,-69.6164 c 2.4388,-2.6949 4.9854,-4.8997 5.6591,-4.8997 0.6737,0 -0.7705,2.2048 -3.2092,4.8997 -2.4388,2.6948 -4.9854,4.8996 -5.6591,4.8996 -0.6737,0 0.7704,-2.2048 3.2092,-4.8996 z m -381.2635,-11.6368 c -3.0473,-3.8856 -2.9606,-3.9723 0.925,-0.925 4.0808,3.2004 5.3786,5.2122 3.3623,5.2122 -0.5088,0 -2.438,-1.9292 -4.2873,-4.2872 z m 460.271,-24.2836 c 1.6843,-0.6796 4.4404,-0.6796 6.1246,0 1.6843,0.6797 0.3063,1.2357 -3.0623,1.2357 -3.3685,0 -4.7465,-0.556 -3.0623,-1.2357 z m -742.15007,-7.4005 c 1.76848,-0.7077 3.88147,-0.6207 4.69553,0.1934 0.81407,0.814 -0.63287,1.393 -3.21542,1.2867 -2.85393,-0.1176 -3.43444,-0.6981 -1.48011,-1.4801 z m 529.62597,-104.8948 c 4.5709,-4.716 8.8619,-8.5745 9.5356,-8.5745 0.6737,0 -2.5149,3.8585 -7.0857,8.5745 -4.5709,4.716 -8.8619,8.5745 -9.5356,8.5745 -0.6738,0 2.5148,-3.8585 7.0857,-8.5745 z m 405.2954,-4.2872 -7.1955,-7.962 7.962,7.1954 c 4.3791,3.9575 7.962,7.5404 7.962,7.962 0,1.8926 -2.0214,0.2263 -8.7285,-7.1954 z m -783.1841,-30.4082 c 1.6843,-0.6796 4.4404,-0.6796 6.1247,0 1.6842,0.6796 0.3062,1.2357 -3.0624,1.2357 -3.3685,0 -4.7465,-0.5561 -3.0623,-1.2357 z m -8.1947,-50.4367 -4.667,-5.5122 5.5122,4.6669 c 3.0317,2.5668 5.5122,5.0473 5.5122,5.5122 0,1.9605 -1.9717,0.5131 -6.3574,-4.6669 z m 330.3494,3.7275 c 5.0528,-0.5286 13.3211,-0.5286 18.3739,0 5.0528,0.5285 0.9187,0.961 -9.1869,0.961 -10.1057,0 -14.2398,-0.4325 -9.187,-0.961 z m 241.4629,-2.3388 c 1.7685,-0.7076 3.8815,-0.6206 4.6956,0.1935 0.814,0.814 -0.6329,1.393 -3.2154,1.2867 -2.854,-0.1176 -3.4345,-0.6981 -1.4802,-1.4802 z m 46.5471,-4.8996 c 1.7685,-0.7077 3.8815,-0.6207 4.6955,0.1934 0.8141,0.814 -0.6328,1.393 -3.2154,1.2867 -2.8539,-0.1176 -3.4344,-0.6981 -1.4801,-1.4801 z M 766.34233,966.01549 c 1.76848,-0.70769 3.88147,-0.62065 4.69554,0.19341 0.81406,0.81406 -0.63288,1.39308 -3.21543,1.2867 -2.85393,-0.11755 -3.43443,-0.69806 -1.48011,-1.48011 z m -97.99383,-2.44985 c 1.76849,-0.70768 3.88148,-0.62065 4.69554,0.19341 0.81406,0.81407 -0.63288,1.39308 -3.21542,1.28671 -2.85393,-0.11755 -3.43444,-0.69806 -1.48012,-1.48012 z m 37.8195,-0.11111 c 5.0528,-0.52854 13.32103,-0.52854 18.37384,0 5.0528,0.52854 0.91869,0.96098 -9.18692,0.96098 -10.10562,0 -14.23973,-0.43244 -9.18692,-0.96098 z m 454.7463,-4.95244 c -3.0473,-3.88559 -2.9606,-3.97224 0.925,-0.92495 4.0808,3.2004 5.3786,5.21218 3.3623,5.21218 -0.5088,0 -2.438,-1.92925 -4.2873,-4.28723 z m 798.3497,2.66475 c 1.6843,-0.67962 4.4404,-0.67962 6.1246,0 1.6843,0.67961 0.3063,1.23566 -3.0623,1.23566 -3.3685,0 -4.7465,-0.55605 -3.0623,-1.23566 z m 41.8005,-2.50089 c 1.7685,-0.70769 3.8815,-0.62065 4.6955,0.19341 0.8141,0.81406 -0.6328,1.39308 -3.2154,1.28671 -2.8539,-0.11756 -3.4344,-0.69806 -1.4801,-1.48012 z M 1668.5383,804.57013 c 0.1175,-2.85393 0.698,-3.43444 1.4801,-1.48012 0.7077,1.76848 0.6206,3.88148 -0.1934,4.69554 -0.8141,0.81406 -1.3931,-0.63288 -1.2867,-3.21542 z m -68.0884,-38.99338 c 0.018,-6.73707 0.4941,-9.20238 1.0572,-5.47847 0.5632,3.72392 0.5481,9.23607 -0.033,12.24923 -0.5815,3.01316 -1.0422,-0.0337 -1.0238,-6.77076 z m -974.74711,-14.08661 -4.66693,-5.51215 5.51215,4.66692 c 5.18007,4.38576 6.62743,6.35738 4.66693,6.35738 -0.46488,0 -2.94535,-2.48047 -5.51215,-5.51215 z m 175.08423,1.22492 c -3.04729,-3.88559 -2.96064,-3.97224 0.92495,-0.92495 4.08083,3.2004 5.37859,5.21218 3.36228,5.21218 -0.50872,0 -2.43798,-1.92925 -4.28723,-4.28723 z M 612.14891,738.01599 c -3.04729,-3.88559 -2.96064,-3.97225 0.92495,-0.92495 2.35798,1.84925 4.28723,3.7785 4.28723,4.28723 0,2.0163 -2.01178,0.71854 -5.21218,-3.36228 z m 985.34379,-16.74061 c 0.1176,-2.85393 0.6981,-3.43444 1.4802,-1.48012 0.7076,1.76848 0.6206,3.88148 -0.1935,4.69554 -0.814,0.81406 -1.393,-0.63288 -1.2867,-3.21542 z m -7.3495,-61.24614 c 0.1176,-2.85393 0.6981,-3.43444 1.4801,-1.48012 0.7077,1.76848 0.6207,3.88148 -0.1934,4.69554 -0.8141,0.81406 -1.3931,-0.63288 -1.2867,-3.21542 z M 745.13988,632.06017 c 0,-3.36854 0.55605,-4.74658 1.23567,-3.06231 0.67962,1.68427 0.67962,4.44034 0,6.12461 -0.67962,1.68427 -1.23567,0.30623 -1.23567,-3.0623 z m 1200.23092,-1.42908 c 0.1176,-2.85393 0.6981,-3.43444 1.4801,-1.48012 0.7077,1.76849 0.6207,3.88148 -0.1934,4.69554 -0.814,0.81406 -1.3931,-0.63288 -1.2867,-3.21542 z M 745.13988,553.66511 c 0,-3.36854 0.55605,-4.74658 1.23567,-3.06231 0.67962,1.68427 0.67962,4.44034 0,6.12461 -0.67962,1.68427 -1.23567,0.30623 -1.23567,-3.0623 z m 1200.42432,-7.34954 c 0,-3.36854 0.5561,-4.74658 1.2357,-3.06231 0.6796,1.68427 0.6796,4.44035 0,6.12462 -0.6796,1.68427 -1.2357,0.30623 -1.2357,-3.06231 z m 240.0849,-48.99691 c 0,-3.36854 0.556,-4.74658 1.2357,-3.06231 0.6796,1.68427 0.6796,4.44035 0,6.12461 -0.6797,1.68427 -1.2357,0.30624 -1.2357,-3.0623 z M 595.6993,475.27005 c 0,-3.36854 0.55605,-4.74658 1.23567,-3.06231 0.67961,1.68427 0.67961,4.44035 0,6.12461 -0.67962,1.68427 -1.23567,0.30623 -1.23567,-3.0623 z M 505.42733,461.7959 c 0.0138,-8.08449 0.4711,-11.09643 1.01634,-6.6932 0.54525,4.40323 0.53399,11.01781 -0.025,14.69907 -0.55899,3.68126 -1.00509,0.0786 -0.99134,-8.00587 z m 1591.83387,4.69553 c 0.1176,-2.85393 0.6981,-3.43443 1.4802,-1.48011 0.7076,1.76848 0.6206,3.88147 -0.1934,4.69554 -0.8141,0.81406 -1.3931,-0.63288 -1.2868,-3.21543 z m 88.1945,-34.29783 c 0.1175,-2.85394 0.698,-3.43444 1.4801,-1.48012 0.7077,1.76848 0.6207,3.88147 -0.1934,4.69554 -0.8141,0.81406 -1.3931,-0.63288 -1.2867,-3.21542 z m -88.1945,-24.49846 c 0.1176,-2.85393 0.6981,-3.43444 1.4802,-1.48012 0.7076,1.76849 0.6206,3.88148 -0.1934,4.69554 -0.8141,0.81406 -1.3931,-0.63288 -1.2868,-3.21542 z M 595.50589,388.09637 c 0.11755,-2.85393 0.69806,-3.43443 1.48012,-1.48011 0.70768,1.76848 0.62065,3.88147 -0.19341,4.69554 -0.81407,0.81406 -1.39308,-0.63288 -1.28671,-3.21543 z m 1337.23691,-54.30491 -5.9392,-6.73707 6.737,5.93919 c 3.7054,3.26656 6.7371,6.29824 6.7371,6.73708 0,1.92135 -1.9839,0.35762 -7.5349,-5.9392 z m -41.7745,-41.64737 c -3.0473,-3.88559 -2.9606,-3.97224 0.925,-0.92495 2.3579,1.84925 4.2872,3.7785 4.2872,4.28723 0,2.0163 -2.0118,0.71854 -5.2122,-3.36228 z"
         id="path5" /><path
         style="fill:#c66d4d"
         d="m 1312.6579,2538.8164 c 1.7685,-0.7077 3.8815,-0.6207 4.6955,0.1934 0.8141,0.814 -0.6328,1.3931 -3.2154,1.2867 -2.8539,-0.1176 -3.4344,-0.6981 -1.4801,-1.4801 z M 889.29395,2429.0219 c 3.16458,-3.3685 6.305,-6.1246 6.9787,-6.1246 0.67371,0 -1.36427,2.7561 -4.52885,6.1246 -3.16458,3.3686 -6.30499,6.1246 -6.9787,6.1246 -0.67371,0 1.36428,-2.756 4.52885,-6.1246 z m 29.39815,-29.3981 c 4.57088,-4.716 8.86191,-8.5745 9.53562,-8.5745 0.67371,0 -2.51489,3.8585 -7.08577,8.5745 -4.57088,4.7159 -8.86191,8.5744 -9.53562,8.5744 -0.67371,0 2.51489,-3.8585 7.08577,-8.5744 z m 838.918,-11.6368 -7.1954,-7.962 7.962,7.1954 c 7.4217,6.7072 9.0881,8.7286 7.1954,8.7286 -0.4216,0 -4.0045,-3.5829 -7.962,-7.962 z m -809.51985,-19.9113 c 0,-0.5087 1.92925,-2.4379 4.28723,-4.2872 3.88559,-3.0473 3.97224,-2.9606 0.92495,0.925 -3.2004,4.0808 -5.21218,5.3786 -5.21218,3.3622 z m 781.18825,-10.7118 c -3.0473,-3.8856 -2.9606,-3.9722 0.925,-0.9249 2.3579,1.8492 4.2872,3.7785 4.2872,4.2872 0,2.0163 -2.0118,0.7186 -5.2122,-3.3623 z m -756.6898,-16.2365 c 0,-0.5087 1.92926,-2.4379 4.28723,-4.2872 3.8856,-3.0473 3.97225,-2.9606 0.92496,0.925 -3.20041,4.0808 -5.21219,5.3786 -5.21219,3.3622 z m 22.04862,-24.4984 c 0,-0.5087 1.92925,-2.438 4.28722,-4.2872 3.88556,-3.0473 3.97226,-2.9607 0.92496,0.9249 -3.20041,4.0808 -5.21218,5.3786 -5.21218,3.3623 z M 1997.8491,2094.618 c 9.3596,-9.4319 17.5687,-17.1489 18.2424,-17.1489 0.6737,0 -6.4329,7.717 -15.7926,17.1489 -9.3596,9.4319 -17.5687,17.1489 -18.2424,17.1489 -0.6737,0 6.433,-7.717 15.7926,-17.1489 z m -1303.55064,4.2872 -4.66692,-5.5121 5.51215,4.6669 c 5.18006,4.3858 6.62742,6.3574 4.66693,6.3574 -0.46488,0 -2.94535,-2.4805 -5.51216,-5.5122 z m 187.33347,-133.5166 c -3.04729,-3.8856 -2.96064,-3.9722 0.92495,-0.9249 4.08082,3.2004 5.37858,5.2122 3.36228,5.2122 -0.50873,0 -2.43798,-1.9293 -4.28723,-4.2873 z m 936.15347,-11.6367 c 3.1646,-3.3686 6.305,-6.1246 6.9787,-6.1246 0.6737,0 -1.3642,2.756 -4.5288,6.1246 -3.1646,3.3685 -6.305,6.1246 -6.9787,6.1246 -0.6737,0 1.3643,-2.7561 4.5288,-6.1246 z m 415.2489,-37.9726 c 2.4388,-2.6949 4.9853,-4.8997 5.6591,-4.8997 0.6737,0 -0.7705,2.2048 -3.2093,4.8997 -2.4388,2.6948 -4.9854,4.8997 -5.6591,4.8997 -0.6737,0 0.7705,-2.2049 3.2093,-4.8997 z m -373.6015,-3.2165 c 0,-0.4216 3.5829,-4.0045 7.962,-7.962 l 7.962,-7.1954 -7.1954,7.962 c -6.7072,7.4217 -8.7286,9.0881 -8.7286,7.1954 z m -1043.9467,-13.32 c -3.0473,-3.8856 -2.96064,-3.9722 0.92495,-0.9249 2.35797,1.8492 4.28723,3.7785 4.28723,4.2872 0,2.0163 -2.01178,0.7185 -5.21218,-3.3623 z m 1236.0268,-15.924 -4.6669,-5.5121 5.5122,4.6669 c 5.18,4.3857 6.6274,6.3574 4.6669,6.3574 -0.4649,0 -2.9454,-2.4805 -5.5122,-5.5122 z m 59.9415,-8.5745 c -3.0473,-3.8855 -2.9606,-3.9722 0.925,-0.9249 4.0808,3.2004 5.3786,5.2122 3.3622,5.2122 -0.5087,0 -2.4379,-1.9293 -4.2872,-4.2873 z m -19.5987,-17.1489 c -3.0473,-3.8856 -2.9607,-3.9722 0.9249,-0.9249 2.358,1.8492 4.2872,3.7785 4.2872,4.2872 0,2.0163 -2.0117,0.7186 -5.2121,-3.3623 z m -22.0487,-19.5987 c -3.0472,-3.8856 -2.9606,-3.9723 0.925,-0.925 2.358,1.8493 4.2872,3.7785 4.2872,4.2872 0,2.0163 -2.0118,0.7186 -5.2122,-3.3622 z M 334.40392,1825.135 c 2.43879,-2.6949 4.98538,-4.8997 5.65909,-4.8997 0.6737,0 -0.77045,2.2048 -3.20924,4.8997 -2.43879,2.6948 -4.98537,4.8997 -5.65908,4.8997 -0.67371,0 0.77045,-2.2049 3.20923,-4.8997 z m 1648.51338,-5.5122 -4.667,-5.5121 5.5122,4.6669 c 5.18,4.3858 6.6274,6.3574 4.6669,6.3574 -0.4649,0 -2.9453,-2.4805 -5.5121,-5.5122 z m 51.4467,-14.6991 -4.6669,-5.5121 5.5121,4.6669 c 5.1801,4.3858 6.6275,6.3574 4.667,6.3574 -0.4649,0 -2.9454,-2.4805 -5.5122,-5.5122 z M 390.75037,1776.1381 c 2.43879,-2.6949 4.98538,-4.8997 5.65909,-4.8997 0.6737,0 -0.77045,2.2048 -3.20924,4.8997 -2.43879,2.6948 -4.98538,4.8997 -5.65908,4.8997 -0.67371,0 0.77045,-2.2049 3.20923,-4.8997 z m 1604.41613,-7.962 -4.6669,-5.5122 5.5121,4.6669 c 5.1801,4.3858 6.6274,6.3574 4.6669,6.3574 -0.4648,0 -2.9453,-2.4805 -5.5121,-5.5121 z m 186.1882,0 -4.6669,-5.5122 5.5122,4.6669 c 5.18,4.3858 6.6274,6.3574 4.6669,6.3574 -0.4649,0 -2.9453,-2.4805 -5.5122,-5.5121 z m 42.9732,-20.8237 -8.4426,-9.1869 9.187,8.4425 c 5.0528,4.6434 9.1869,8.7776 9.1869,9.187 0,1.8707 -2.0731,0.1084 -9.9313,-8.4426 z m -286.6319,-34.2979 -8.4426,-9.1869 9.1869,8.4426 c 8.551,7.8582 10.3134,9.9313 8.4426,9.9313 -0.4094,0 -4.5435,-4.1342 -9.1869,-9.187 z m 188.4575,4.8997 c -3.0473,-3.8856 -2.9606,-3.9722 0.9249,-0.9249 4.0809,3.2004 5.3786,5.2122 3.3623,5.2122 -0.5087,0 -2.438,-1.9293 -4.2872,-4.2873 z m 50.4422,-15.924 -12.1571,-12.8617 12.8617,12.1572 c 11.9513,11.2966 13.9852,13.5662 12.1571,13.5662 -0.3875,0 -6.1753,-5.7877 -12.8617,-12.8617 z m -87.0628,-18.3738 -5.9392,-6.7371 6.7371,5.9392 c 3.7054,3.2666 6.737,6.2983 6.737,6.7371 0,1.9213 -1.9838,0.3576 -7.5349,-5.9392 z m 25.676,-40.4225 -4.6669,-5.5121 5.5121,4.6669 c 5.1801,4.3858 6.6275,6.3574 4.667,6.3574 -0.4649,0 -2.9454,-2.4805 -5.5122,-5.5122 z m -95.544,-24.4984 -4.6669,-5.5122 5.5122,4.667 c 5.18,4.3857 6.6274,6.3573 4.6669,6.3573 -0.4649,0 -2.9454,-2.4804 -5.5122,-5.5121 z m -33.1526,-30.6231 c -3.0473,-3.8856 -2.9606,-3.9722 0.9249,-0.9249 4.0809,3.2004 5.3786,5.2121 3.3623,5.2121 -0.5087,0 -2.438,-1.9292 -4.2872,-4.2872 z m -175.0056,-40.4224 -7.1954,-7.962 7.962,7.1954 c 7.4217,6.7071 9.0881,8.7286 7.1954,8.7286 -0.4216,0 -4.0045,-3.5829 -7.962,-7.962 z m -52.9769,-32.9091 c 1.7685,-0.7077 3.8815,-0.6206 4.6955,0.1934 0.8141,0.8141 -0.6328,1.3931 -3.2154,1.2867 -2.8539,-0.1175 -3.4344,-0.698 -1.4801,-1.4801 z m -171.4892,-7.3495 c 1.7685,-0.7077 3.8815,-0.6207 4.6955,0.1934 0.8141,0.814 -0.6328,1.3931 -3.2154,1.2867 -2.8539,-0.1176 -3.4344,-0.6981 -1.4801,-1.4801 z m 263.585,-6.2885 -4.6669,-5.5122 5.5121,4.667 c 5.1801,4.3857 6.6274,6.3573 4.6669,6.3573 -0.4648,0 -2.9453,-2.4804 -5.5121,-5.5121 z m -420.0477,-15.924 -8.4425,-9.1869 9.1869,8.4426 c 8.551,7.8581 10.3133,9.9312 8.4426,9.9312 -0.4094,0 -4.5435,-4.1341 -9.187,-9.1869 z m 398.0777,-3.6748 -7.1954,-7.962 7.962,7.1955 c 7.4217,6.7071 9.0881,8.7285 7.1954,8.7285 -0.4216,0 -4.0045,-3.5829 -7.962,-7.962 z m 239.4917,-56.9589 c 0.05,-4.0422 0.599,-5.3993 1.2201,-3.0157 0.6212,2.3837 0.5803,5.6909 -0.091,7.3496 -0.671,1.6586 -1.1792,-0.2916 -1.1293,-4.3339 z M 623.10062,1402.5366 c 0.009,-10.7793 0.4396,-14.8843 0.95712,-9.1222 0.51751,5.7622 0.51023,14.5816 -0.0162,19.5988 -0.52642,5.0172 -0.94984,0.3027 -0.94094,-10.4766 z m 1444.76248,-27.1524 c 0.1176,-2.854 0.6981,-3.4345 1.4801,-1.4802 0.7077,1.7685 0.6207,3.8815 -0.1934,4.6956 -0.8141,0.814 -1.3931,-0.6329 -1.2867,-3.2154 z m -1846.99018,-30.419 c 0,-3.3685 0.55605,-4.7465 1.23567,-3.0623 0.67962,1.6843 0.67962,4.4404 0,6.1246 -0.67962,1.6843 -1.23567,0.3063 -1.23567,-3.0623 z m 1139.45868,-24.4984 c 0,-6.0634 0.4777,-8.5439 1.0616,-5.5122 0.584,3.0317 0.584,7.9926 0,11.0243 -0.5839,3.0317 -1.0616,0.5512 -1.0616,-5.5121 z m 1104.4065,-8.7786 c 0.1175,-2.854 0.698,-3.4345 1.4801,-1.4801 0.7077,1.7684 0.6207,3.8814 -0.1934,4.6955 -0.8141,0.8141 -1.3931,-0.6329 -1.2867,-3.2154 z m -1839.83406,-9.7994 c 0.11755,-2.8539 0.69806,-3.4345 1.48011,-1.4801 0.70769,1.7685 0.62066,3.8814 -0.19341,4.6955 -0.81406,0.8141 -1.39308,-0.6329 -1.2867,-3.2154 z m 1115.55716,-121.6757 -7.1954,-7.962 7.962,7.1954 c 4.3791,3.9575 7.962,7.5404 7.962,7.962 0,1.8927 -2.0215,0.2263 -8.7286,-7.1954 z m -309.7514,-34.9103 c 3.1646,-3.3685 6.305,-6.1246 6.9787,-6.1246 0.6737,0 -1.3642,2.7561 -4.5288,6.1246 -3.1646,3.3686 -6.305,6.1246 -6.9787,6.1246 -0.6737,0 1.3643,-2.756 4.5288,-6.1246 z m 229.6731,-68.9932 c 1.6842,-0.6796 4.4403,-0.6796 6.1246,0 1.6842,0.6796 0.3062,1.2356 -3.0623,1.2356 -3.3686,0 -4.7466,-0.556 -3.0623,-1.2356 z m 595.8225,-40.6374 c 6.0071,-6.4002 11.2436,-11.6367 11.6368,-11.6367 1.8395,0 -0.1054,2.1995 -10.9219,12.3516 l -11.6368,10.9219 z m 31.9504,-29.7106 c 0,-0.5087 1.9292,-2.438 4.2872,-4.2872 3.8856,-3.04733 3.9723,-2.96068 0.925,0.9249 -3.2004,4.0808 -5.2122,5.3786 -5.2122,3.3623 z M 605.30527,966.25994 c 0.11756,-2.85393 0.69806,-3.43444 1.48012,-1.48012 0.70769,1.76848 0.62065,3.88148 -0.19341,4.69554 -0.81406,0.81406 -1.39308,-0.63288 -1.28671,-3.21542 z M 2346.9521,954.51483 c 0,-0.50872 1.9292,-2.43797 4.2872,-4.28723 3.8856,-3.04729 3.9723,-2.96064 0.925,0.92496 -3.2004,4.08082 -5.2122,5.37858 -5.2122,3.36227 z m 15.924,-16.22396 c 2.4388,-2.69483 4.9854,-4.8997 5.6591,-4.8997 0.6737,0 -0.7705,2.20487 -3.2093,4.8997 -2.4388,2.69483 -4.9853,4.89969 -5.6591,4.89969 -0.6737,0 0.7705,-2.20486 3.2093,-4.89969 z M 320.61728,936.45348 c -3.04729,-3.88559 -2.96064,-3.97224 0.92496,-0.92495 2.35797,1.84925 4.28723,3.77851 4.28723,4.28723 0,2.01631 -2.01178,0.71855 -5.21219,-3.36228 z m 414.99549,-17.00925 c 2.38362,-0.62115 5.69091,-0.5803 7.34953,0.0908 1.65863,0.67107 -0.29161,1.17928 -4.33385,1.12935 -4.04225,-0.0499 -5.3993,-0.59898 -3.01568,-1.22012 z M 602.34953,809.06151 c -3.04729,-3.88559 -2.96064,-3.97224 0.92495,-0.92495 2.35798,1.84925 4.28723,3.7785 4.28723,4.28723 0,2.0163 -2.01178,0.71855 -5.21218,-3.36228 z m 1116.10187,-67.37075 -9.6841,-10.41185 10.4119,9.68411 c 5.7265,5.32627 10.4118,10.0116 10.4118,10.41185 0,1.8535 -2.1335,-10e-4 -11.1396,-9.68411 z m -469.4895,-91.70535 c 1.7685,-0.70769 3.8815,-0.62066 4.6955,0.19341 0.8141,0.81406 -0.6328,1.39308 -3.2154,1.2867 -2.8539,-0.11755 -3.4344,-0.69806 -1.4801,-1.48011 z m 68.5957,-2.44985 c 1.7685,-0.70769 3.8815,-0.62065 4.6955,0.19341 0.8141,0.81406 -0.6329,1.39308 -3.2154,1.28671 -2.8539,-0.11756 -3.4344,-0.69806 -1.4801,-1.48012 z m 68.5957,0 c 1.7684,-0.70769 3.8814,-0.62065 4.6955,0.19341 0.8141,0.81406 -0.6329,1.39308 -3.2154,1.28671 -2.8539,-0.11756 -3.4345,-0.69806 -1.4801,-1.48012 z M 937.97838,419.53606 c -3.0473,-3.88559 -2.96064,-3.97224 0.92495,-0.92495 4.08082,3.2004 5.37858,5.21218 3.36228,5.21218 -0.50873,0 -2.43798,-1.92925 -4.28723,-4.28723 z m 821.01072,-11.3368 c 0,-0.50872 1.9293,-2.43797 4.2873,-4.28723 3.8856,-3.04729 3.9722,-2.96064 0.9249,0.92496 -3.2004,4.08082 -5.2122,5.37858 -5.2122,3.36227 z m -856.45376,-26.63581 -4.66693,-5.51215 5.51216,4.66693 c 5.18006,4.38575 6.62742,6.35738 4.66692,6.35738 -0.46487,0 -2.94534,-2.48047 -5.51215,-5.51216 z"
         id="path4" /><path
         style="fill:#637488"
         d="m 1295.3559,2083.1961 c 1.6842,-0.6796 4.4403,-0.6796 6.1246,0 1.6842,0.6796 0.3062,1.2357 -3.0623,1.2357 -3.3686,0 -4.7466,-0.5561 -3.0623,-1.2357 z m 93.2472,-0.051 c 1.7685,-0.7077 3.8815,-0.6207 4.6955,0.1934 0.8141,0.8141 -0.6328,1.3931 -3.2154,1.2867 -2.8539,-0.1176 -3.4344,-0.6981 -1.4801,-1.4801 z m 348.3374,-124.1936 c 0,-0.5087 1.9293,-2.4379 4.2873,-4.2872 3.8856,-3.0473 3.9722,-2.9606 0.9249,0.925 -3.2004,4.0808 -5.2122,5.3785 -5.2122,3.3622 z m -436.6564,-206.5947 c 3.0474,-0.586 7.4571,-0.5638 9.7994,0.049 2.3423,0.6132 -0.1511,1.0926 -5.5407,1.0654 -5.3897,-0.027 -7.3061,-0.5288 -4.2587,-1.1148 z m 90.6157,0.1102 c 1.6843,-0.6797 4.4404,-0.6797 6.1247,0 1.6842,0.6796 0.3062,1.2356 -3.0624,1.2356 -3.3685,0 -4.7465,-0.556 -3.0623,-1.2356 z m -132.1385,-34.3489 c 1.7685,-0.7077 3.8815,-0.6207 4.6955,0.1934 0.8141,0.8141 -0.6328,1.3931 -3.2154,1.2867 -2.8539,-0.1175 -3.4344,-0.6981 -1.4801,-1.4801 z m 188.6381,0 c 1.7685,-0.7077 3.8815,-0.6207 4.6955,0.1934 0.8141,0.8141 -0.6328,1.3931 -3.2154,1.2867 -2.8539,-0.1175 -3.4344,-0.6981 -1.4801,-1.4801 z m 42.4935,-62.0225 c 0,-3.3685 0.5561,-4.7465 1.2357,-3.0623 0.6796,1.6843 0.6796,4.4404 0,6.1246 -0.6796,1.6843 -1.2357,0.3063 -1.2357,-3.0623 z m 142.3167,-55.5853 c 2.358,-0.6162 6.2165,-0.6162 8.5745,0 2.358,0.6162 0.4287,1.1204 -4.2872,1.1204 -4.716,0 -6.6452,-0.5042 -4.2873,-1.1204 z m -57.4182,-2.4346 c 1.7685,-0.7077 3.8815,-0.6207 4.6955,0.1934 0.8141,0.814 -0.6329,1.393 -3.2154,1.2867 -2.8539,-0.1176 -3.4344,-0.6981 -1.4801,-1.4801 z m -279.2824,-4.8997 c 1.7685,-0.7077 3.8815,-0.6207 4.6955,0.1934 0.8141,0.814 -0.6329,1.3931 -3.2154,1.2867 -2.8539,-0.1176 -3.4344,-0.6981 -1.4801,-1.4801 z m -159.0931,-5.0636 c -3.0473,-3.8856 -2.9607,-3.9722 0.9249,-0.9249 2.358,1.8492 4.2873,3.7785 4.2873,4.2872 0,2.0163 -2.0118,0.7185 -5.2122,-3.3623 z m 462.7208,-230.0706 c 1.6843,-0.6796 4.4404,-0.6796 6.1246,0 1.6843,0.6796 0.3063,1.2357 -3.0623,1.2357 -3.3685,0 -4.7466,-0.5561 -3.0623,-1.2357 z m -385.9855,-6.9519 c 0.05,-4.0423 0.599,-5.3994 1.2201,-3.0157 0.6211,2.3836 0.5803,5.6909 -0.091,7.3495 -0.6711,1.6586 -1.1793,-0.2916 -1.1293,-4.3338 z m 433.145,-11.9493 c 0,-0.5087 1.9293,-2.438 4.2873,-4.2872 3.8856,-3.0473 3.9722,-2.9607 0.9249,0.9249 -3.2004,4.0808 -5.2122,5.3786 -5.2122,3.3623 z m -12.8331,-125.7499 c 3.0474,-0.5859 7.4571,-0.5637 9.7994,0.05 2.3423,0.6132 -0.1511,1.0926 -5.5407,1.0654 -5.3897,-0.027 -7.3061,-0.5289 -4.2587,-1.1149 z m -710.33065,-4.8405 c 1.76848,-0.7077 3.88147,-0.6207 4.69553,0.1934 0.81407,0.8141 -0.63287,1.3931 -3.21542,1.2867 -2.85393,-0.1175 -3.43444,-0.698 -1.48011,-1.4801 z m -36.74769,-2.4498 c 1.76848,-0.7077 3.88148,-0.6207 4.69554,0.1934 0.81406,0.814 -0.63288,1.393 -3.21542,1.2867 -2.85393,-0.1176 -3.43444,-0.6981 -1.48012,-1.4801 z M 756.6898,1156.9396 c -3.04729,-3.8856 -2.96064,-3.9723 0.92495,-0.925 4.08083,3.2004 5.37859,5.2122 3.36228,5.2122 -0.50872,0 -2.43798,-1.9292 -4.28723,-4.2872 z m 1195.8371,-18.6863 c 0,-0.5088 1.9293,-2.438 4.2873,-4.2873 3.8856,-3.0473 3.9722,-2.9606 0.9249,0.925 -3.2004,4.0808 -5.2122,5.3786 -5.2122,3.3623 z m -557.3398,-23.5736 c 2.4388,-2.6948 4.9853,-4.8996 5.6591,-4.8996 0.6737,0 -0.7705,2.2048 -3.2093,4.8996 -2.4388,2.6949 -4.9854,4.8997 -5.6591,4.8997 -0.6737,0 0.7705,-2.2048 3.2093,-4.8997 z m 429.6354,-6.737 c -3.0473,-3.8856 -2.9607,-3.9723 0.9249,-0.925 4.0809,3.2004 5.3786,5.2122 3.3623,5.2122 -0.5087,0 -2.438,-1.9292 -4.2872,-4.2872 z m -406.3619,-16.2365 c 0,-0.5087 1.9293,-2.438 4.2872,-4.2872 3.8856,-3.0473 3.9723,-2.9607 0.925,0.9249 -3.2004,4.0808 -5.2122,5.3786 -5.2122,3.3623 z m 383.1681,-7.0371 -4.6669,-5.5121 5.5121,4.6669 c 3.0317,2.5668 5.5122,5.0473 5.5122,5.5122 0,1.9605 -1.9717,0.5131 -6.3574,-4.667 z m -465.8038,-64.7812 c 2.3837,-0.6211 5.691,-0.5803 7.3496,0.091 1.6586,0.671 -0.2916,1.1792 -4.3339,1.1293 -4.0422,-0.05 -5.3993,-0.599 -3.0157,-1.2201 z m 46.5471,0 c 2.3836,-0.6211 5.6909,-0.5803 7.3495,0.091 1.6587,0.671 -0.2916,1.1792 -4.3338,1.1293 -4.0423,-0.05 -5.3993,-0.599 -3.0157,-1.2201 z M 758.99279,966.01549 c 1.76848,-0.70769 3.88148,-0.62065 4.69554,0.19341 0.81406,0.81406 -0.63288,1.39308 -3.21542,1.2867 -2.85393,-0.11755 -3.43444,-0.69806 -1.48012,-1.48011 z m -79.7731,-2.53103 c 3.7054,-0.56132 9.76876,-0.56132 13.47415,0 3.7054,0.56132 0.67371,1.02058 -6.73707,1.02058 -7.41078,0 -10.44247,-0.45926 -6.73708,-1.02058 z m 1289.84371,-2.31762 c 1.6843,-0.67962 4.4403,-0.67962 6.1246,0 1.6843,0.67961 0.3062,1.23566 -3.0623,1.23566 -3.3685,0 -4.7466,-0.55605 -3.0623,-1.23566 z m 42.8723,-2.58208 c 3.7054,-0.56132 9.7688,-0.56132 13.4742,0 3.7053,0.56132 0.6737,1.02059 -6.7371,1.02059 -7.4108,0 -10.4425,-0.45927 -6.7371,-1.02059 z m -858.3709,-7.4322 c -3.0473,-3.8856 -2.9607,-3.97225 0.9249,-0.92496 4.0809,3.20041 5.3786,5.21219 3.3623,5.21219 -0.5087,0 -2.438,-1.92926 -4.2872,-4.28723 z M 1019.3292,826.61874 c 0.1175,-2.85393 0.698,-3.43444 1.4801,-1.48012 0.7077,1.76848 0.6206,3.88148 -0.1934,4.69554 -0.8141,0.81406 -1.3931,-0.63288 -1.2867,-3.21542 z m 649.2091,-14.69908 c 0.1175,-2.85393 0.698,-3.43443 1.4801,-1.48011 0.7077,1.76848 0.6206,3.88147 -0.1934,4.69554 -0.8141,0.81406 -1.3931,-0.63288 -1.2867,-3.21543 z m -68.4023,-30.41891 c 0,-3.36854 0.556,-4.74658 1.2357,-3.06231 0.6796,1.68427 0.6796,4.44035 0,6.12461 -0.6797,1.68427 -1.2357,0.30624 -1.2357,-3.0623 z m -511.6704,-12.24923 c 0,-7.41078 0.4592,-10.44247 1.0206,-6.73708 0.5613,3.7054 0.5613,9.76876 0,13.47415 -0.5614,3.7054 -1.0206,0.67371 -1.0206,-6.73707 z M 808.13656,760.0646 c -3.04729,-3.88559 -2.96064,-3.97224 0.92495,-0.92495 4.08083,3.2004 5.37858,5.21218 3.36228,5.21218 -0.50873,0 -2.43798,-1.92926 -4.28723,-4.28723 z M 1600.136,749.65275 c 0,-3.36853 0.556,-4.74657 1.2357,-3.0623 0.6796,1.68427 0.6796,4.44034 0,6.12461 -0.6797,1.68427 -1.2357,0.30623 -1.2357,-3.06231 z m -807.84371,-5.51215 -4.66693,-5.51215 5.51215,4.66692 c 5.18007,4.38576 6.62743,6.35738 4.66693,6.35738 -0.46488,0 -2.94534,-2.48046 -5.51215,-5.51215 z M 2084.8186,726.67919 c 0,-0.50872 1.9293,-2.43797 4.2872,-4.28723 3.8856,-3.04729 3.9723,-2.96064 0.925,0.92495 -3.2004,4.08083 -5.2122,5.37859 -5.2122,3.36228 z M 1590.1432,652.6797 c 0.1176,-2.85393 0.6981,-3.43444 1.4801,-1.48012 0.7077,1.76849 0.6207,3.88148 -0.1934,4.69554 -0.8141,0.81407 -1.3931,-0.63287 -1.2867,-3.21542 z m -517.1108,-7.14538 c 3.1646,-3.36854 6.305,-6.12462 6.9787,-6.12462 0.6737,0 -1.3643,2.75608 -4.5289,6.12462 -3.1646,3.36853 -6.305,6.12461 -6.9787,6.12461 -0.6737,0 1.3643,-2.75608 4.5289,-6.12461 z m 875.2127,-53.89661 c 0.027,-5.38966 0.5288,-7.30606 1.1148,-4.25866 0.586,3.04739 0.5638,7.45711 -0.049,9.79938 -0.6132,2.34227 -1.0926,-0.15106 -1.0654,-5.54072 z M 744.94647,544.88649 c 0.11756,-2.85393 0.69806,-3.43443 1.48012,-1.48011 0.70769,1.76848 0.62065,3.88147 -0.19341,4.69554 -0.81406,0.81406 -1.39308,-0.63288 -1.28671,-3.21543 z m 1200.42433,-7.34953 c 0.1176,-2.85393 0.6981,-3.43444 1.4801,-1.48012 0.7077,1.76848 0.6207,3.88148 -0.1934,4.69554 -0.814,0.81406 -1.3931,-0.63288 -1.2867,-3.21542 z m 240.0849,-48.99692 c 0.1175,-2.85393 0.698,-3.43443 1.4801,-1.48011 0.7077,1.76848 0.6207,3.88147 -0.1934,4.69554 -0.8141,0.81406 -1.3931,-0.63288 -1.2867,-3.21543 z m 0.1934,-47.56783 c 0,-3.36854 0.556,-4.74658 1.2357,-3.06231 0.6796,1.68427 0.6796,4.44035 0,6.12462 -0.6797,1.68426 -1.2357,0.30623 -1.2357,-3.06231 z M 507.31145,419.94437 c 0.11755,-2.85393 0.69806,-3.43444 1.48011,-1.48012 0.70769,1.76848 0.62066,3.88148 -0.1934,4.69554 -0.81407,0.81406 -1.39309,-0.63288 -1.28671,-3.21542 z m 257.04038,-92.59001 c 0,-0.50872 1.92925,-2.43798 4.28723,-4.28723 3.88559,-3.04729 3.97224,-2.96064 0.92495,0.92495 -3.2004,4.08083 -5.21218,5.37859 -5.21218,3.36228 z m 1153.74537,-8.26197 -8.4426,-9.18692 9.187,8.44258 c 8.551,7.85816 10.3133,9.93126 8.4425,9.93126 -0.4093,0 -4.5435,-4.13411 -9.1869,-9.18692 z m -17.2024,-17.14892 -5.9392,-6.73707 6.737,5.93919 c 3.7054,3.26656 6.7371,6.29824 6.7371,6.73708 0,1.92135 -1.9839,0.35761 -7.5349,-5.9392 z M 805.9992,285.70698 c 0,-0.50872 1.92926,-2.43797 4.28723,-4.28723 3.88559,-3.04729 3.97225,-2.96064 0.92496,0.92496 -3.20041,4.08082 -5.21219,5.37858 -5.21219,3.36227 z"
         id="path3" /><path
         style="fill:#c05c38"
         d="m 1280.0443,2538.0899 c -23.1923,-0.9362 -41.445,-2.8034 -44.7017,-4.5728 -11.5459,-6.273 -17.8919,-25.1484 -32.4246,-96.4428 -10.1894,-49.9867 -16.4772,-70.7382 -24.5399,-80.9883 -3.3408,-4.2472 -9.8565,-7.225 -22.5611,-10.311 -18.9438,-4.6016 -82.3821,-22.7735 -123.2071,-35.2927 l -24.4984,-7.5126 -5.1705,5.4548 c -2.8438,3 -21.96988,23.9818 -42.50238,46.6261 -20.5325,22.6443 -46.69865,50.4753 -58.14701,61.8466 -24.07954,23.9174 -21.65734,23.6021 -54.70257,7.1224 -47.90133,-23.8884 -114.43377,-65.3958 -153.40383,-95.7037 l -19.94479,-15.5115 25.57651,-76.6327 c 27.20321,-81.5068 30.14293,-93.3769 25.34546,-102.3411 -7.09159,-13.2507 -99.30711,-108.2012 -118.0055,-121.5053 l -8.68141,-6.1769 -23.01765,6.4395 c -12.6597,3.5417 -46.10364,14.1487 -74.31986,23.5711 -28.21621,9.4224 -55.75037,17.193 -61.18702,17.2681 -8.49905,0.1173 -11.04475,-1.1931 -18.1588,-9.347 -30.35576,-34.7927 -101.83296,-161.8068 -104.92772,-186.4552 -1.61705,-12.8791 3.15845,-18.5673 49.38749,-58.8269 41.54307,-36.1787 82.06983,-76.6962 82.06983,-82.051 0,-1.7681 -4.45451,-17.4929 -9.8989,-34.9439 -5.44439,-17.4511 -14.87222,-52.1474 -20.95074,-77.1028 -13.85817,-56.895 -12.67418,-53.188 -17.62807,-55.1918 -2.30669,-0.9331 -36.22967,-9.7332 -75.3844,-19.5559 -79.45933,-19.9338 -95.10822,-25.5094 -100.4185,-35.7783 -7.40657,-14.3227 -2.83968,-216.4701 5.08839,-225.2305 2.24978,-2.486 9.42446,-4.8249 17.77572,-5.7949 26.16582,-3.039 129.80462,-29.5233 147.02963,-37.5725 9.27278,-4.3331 16.20139,-16.2764 18.85509,-32.5016 0.99168,-6.0634 7.7465,-31.225 15.01071,-55.9149 21.19637,-72.0428 21.67456,-74.3895 17.00067,-83.4278 -5.9732,-11.5509 -46.48136,-52.6726 -77.61454,-78.79004 -38.11915,-31.97798 -51.15673,-44.1472 -51.15673,-47.74945 0,-4.06933 42.02368,-86.42634 59.96534,-117.51864 25.99763,-45.05304 59.05894,-86.96952 68.59656,-86.96952 3.99426,0 68.55478,24.24697 87.02452,32.68377 15.25331,6.96756 43.69888,29.15221 89.74658,69.99316 30.93131,27.43384 71.93403,59.22129 104.56143,81.06149 19.95562,13.35795 18.863,14.05403 -22.81882,14.53738 -39.79975,0.46152 -76.96111,4.19404 -85.44725,8.58239 -10.21453,5.28214 -13.49754,16.915 -11.34369,40.19465 3.61037,39.02221 20.62505,92.95501 44.1921,140.07941 l 10.44231,20.8803 -12.04865,45.2655 c -18.33238,68.8729 -21.69699,91.9396 -24.11252,165.308 -2.15035,65.3137 0.17492,157.1512 4.69177,185.3033 3.87548,24.1546 13.54005,59.1535 31.23692,113.12 37.27739,113.6772 98.25859,206.3033 201.95434,306.7542 56.19663,54.4382 92.31471,78.8459 179.68508,121.427 57.5577,28.0515 85.8408,38.8888 131.0648,50.2206 58.0127,14.5361 89.8401,18.5125 159.2951,19.9017 68.3188,1.3664 101.4599,-1.3141 158.3398,-12.807 75.6533,-15.2862 152.653,-47.0542 229.7408,-94.7849 65.3573,-40.4675 134.6206,-105.3562 201.2444,-188.5341 17.9806,-22.4482 33.7057,-41.4415 34.9447,-42.2072 2.2435,-1.3865 36.4915,28.4474 81.7296,71.196 37.2253,35.1767 59.1295,53.0501 74.654,60.9161 12.8611,6.5166 17.107,7.3399 41.636,8.0738 32.7988,0.9813 52.5484,-3.293 68.6528,-14.8584 38.2459,-27.4661 51.2926,-89.1414 29.4197,-139.0742 -7.7401,-17.6695 -21.8615,-33.1181 -85.0297,-93.0213 -79.1965,-75.1031 -101.397,-97.9062 -108.0881,-111.0218 -4.5164,-8.8529 -4.978,-12.8454 -3.7298,-32.2594 0.7835,-12.1859 3.0783,-32.4112 5.0997,-44.9451 15.9391,-98.8365 8.5847,-205.2237 -22.7405,-328.9574 l -12.0453,-47.5785 5.6242,-8.7725 c 22.4931,-35.084 38.3397,-80.7907 46.3821,-133.78164 8.8282,-58.16847 8.65,-54.59372 2.7901,-55.97575 -19.4153,-4.57894 -35.4894,-6.29068 -79.4033,-8.45569 -27.3947,-1.35059 -51.5255,-3.4165 -53.6241,-4.59092 -2.9712,-1.66279 -0.6231,-3.84541 10.611,-9.86325 25.9549,-13.90343 65.0741,-44.9494 139.3687,-110.60646 28.0405,-24.78052 52.5533,-39.05441 93.7471,-54.5893 42.9641,-16.20246 53.268,-19.10014 59.5956,-16.75943 14.1901,5.24929 93.3985,135.77834 114.9894,189.49348 l 5.6009,13.93417 -8.1232,9.25176 c -4.4677,5.08847 -22.5566,21.877 -40.1976,37.30784 -50.2362,43.94249 -72.056,64.17269 -78.9169,73.16789 l -6.3391,8.3109 4.0379,16.3657 c 7.3996,29.9907 38.6531,136.3151 41.9836,142.8278 1.8442,3.6064 8.4269,8.8521 15.0209,11.9701 12.3946,5.8608 118.2787,33.1101 139.1299,35.8051 17.0113,2.1987 20.2176,4.4027 23.6832,16.2798 3.5026,12.0042 4.6127,195.0879 1.2785,210.849 -1.7588,8.3137 -3.4887,10.0784 -15.083,15.3864 -7.203,3.2977 -36.0746,11.8952 -64.1592,19.1057 -57.9124,14.8685 -80.8259,21.6504 -91.101,26.9639 -8.0317,4.1533 -13.0312,14.7524 -17.4273,36.9464 -3.7101,18.7308 -14.8808,59.7625 -27.2842,100.2188 l -9.6952,31.6232 5.5751,6.0596 c 3.0662,3.3328 30.3797,28.1365 60.6965,55.1193 30.3169,26.9828 59.4525,52.9197 64.7458,57.6375 l 9.6243,8.5778 -32.0967,63.9197 c -43.8845,87.3947 -72.3817,133.7527 -84.6055,137.6324 -10.9108,3.4629 -31.9196,0.686 -59.7535,-7.8982 -15.9396,-4.9159 -35.5957,-10.8915 -43.6802,-13.279 -8.0845,-2.3875 -25.1722,-7.5852 -37.9726,-11.5505 -12.8005,-3.9652 -26.1901,-7.9109 -29.7548,-8.7682 -5.9228,-1.4244 -11.9922,4.0504 -70.4331,63.5332 -35.1735,35.8005 -63.9518,66.2263 -63.9518,67.6129 0,1.3866 11.4328,37.4064 25.4061,80.044 13.9733,42.6376 26.1813,81.077 27.1289,85.4209 1.5601,7.152 0.6011,9.0198 -10.1528,19.7737 -23.915,23.915 -173.3001,115.6442 -188.3318,115.6442 -3.1267,0 -57.4009,-56.2801 -93.8825,-97.3524 -11.0564,-12.4477 -23.8681,-25.5043 -28.4705,-29.0147 -9.5751,-7.3033 -13.644,-7.0888 -46.5025,2.4515 -44.1063,12.806 -72.2758,20.78 -94.4335,26.7318 -35.3151,9.4858 -36.2764,10.0095 -41.9615,22.8618 -2.7838,6.2933 -13.0712,43.515 -22.8608,82.7148 -9.7897,39.1998 -19.449,75.2205 -21.4652,80.0459 l -3.6658,8.7735 -27.849,1.6046 c -31.9334,1.8399 -93.4454,1.5236 -150.3414,-0.7731 z m 856.2211,-648.4475 c -12.9886,-4.541 -41.1152,-28.7656 -126.0692,-108.5794 -84.1273,-79.0371 -161.8497,-156.6439 -166.8629,-166.6147 -2.3711,-4.716 -5.8126,-15.6914 -7.6479,-24.3899 -1.8539,-8.787 -6.7459,-21.128 -11.008,-27.77 -14.0616,-21.9131 -56.0736,-50.888 -68.2029,-47.0383 -2.6574,0.8434 -10.0689,5.0553 -16.47,9.3597 -15.5167,10.4343 -45.6027,22.0884 -80.8007,31.299 -26.7096,6.9893 -30.9952,7.4501 -58.2297,6.2601 -35.3012,-1.5424 -59.6779,-7.5373 -91.2165,-22.4327 -31.3344,-14.799 -55.575,-32.2229 -79.5234,-57.1606 -23.4859,-24.4561 -35.3463,-41.5031 -48.5424,-69.7704 -13.9628,-29.9097 -17.3929,-45.1481 -18.8553,-83.764 -1.0135,-26.7641 -0.3743,-38.8718 2.9098,-55.1215 6.9838,-34.5546 22.5404,-70.4044 45.1809,-104.1184 15.7789,-23.4963 61.4785,-60.1443 97.6128,-78.2788 30.1852,-15.1489 40.4739,-16.6638 105.7141,-15.565 l 57.7655,0.9729 28.1128,14.1538 c 63.014,31.7254 98.8713,63.9867 125.0381,112.4981 24.6994,45.7912 32.2029,95.1158 23.3713,153.6322 -3.2433,21.4894 -7.581,36.0879 -24.3857,82.0698 -7.2888,19.9441 -7.6055,23.5787 -2.8548,32.7657 3.4224,6.6181 39.3108,39.0118 52.4312,47.3256 3.5987,2.2803 13.8475,5.6482 22.7749,7.4841 31.6951,6.518 39.4088,12.9173 231.6788,192.2003 37.6546,35.1112 69.4526,66.8098 73.7259,73.4954 15.064,23.5676 16.0075,45.6696 2.9273,68.5722 -8.6232,15.0988 -20.045,24.3993 -35.78,29.1348 -14.3294,4.3125 -18.935,4.2254 -32.794,-0.62 z m -485.0695,-386.8118 c 70.2419,-18.1734 124.2104,-72.0225 142.035,-141.7208 5.9615,-23.3108 6.5586,-60.851 1.3582,-85.3921 -7.3213,-34.5498 -28.1196,-70.6688 -56.7885,-98.621 -21.1689,-20.6396 -41.827,-33.3623 -68.2308,-42.0214 -17.956,-5.8886 -23.1924,-6.4481 -62.4711,-6.6744 -36.0937,-0.2079 -45.0027,0.485 -56.3464,4.3829 -69.9474,24.035 -120.2742,81.9739 -133.9988,154.2665 -17.9005,94.2893 53.1829,196.0635 152.3726,218.1608 21.0041,4.6792 59.0484,3.5757 82.0698,-2.3805 z m 101.9189,-734.76988 c -37.1567,-26.64386 -43.256,-34.06493 -66.4739,-80.87903 -22.8558,-46.084 -40.0264,-69.81549 -57.5026,-79.47459 -9.4536,-5.22498 -14.0333,-5.99757 -36.3046,-6.12462 l -25.4863,-0.14538 -9.7894,11.0243 c -10.2243,11.51393 -18.7622,26.66757 -23.8102,42.25984 -1.6359,5.0528 -3.7733,9.18692 -4.7498,9.18692 -0.9766,0 -18.2544,-2.75549 -38.3951,-6.1233 -56.1748,-9.39323 -117.2624,-12.12891 -198.4162,-8.88567 -53.4793,2.13726 -73.8577,3.90766 -92.9873,8.0784 -13.4741,2.93772 -28.2967,5.42328 -32.939,5.52347 -8.2079,0.17715 -8.5883,-0.24492 -13.7997,-15.30829 -5.9892,-17.31176 -14.123,-27.14439 -30.4314,-36.78731 -9.6099,-5.68222 -13.6959,-6.51852 -31.848,-6.51852 -26.9229,0 -40.0867,6.00572 -55.105,25.14069 -11.3747,14.4925 -31.2927,51.49302 -40.53694,75.30298 -3.1388,8.08449 -8.23388,18.77098 -11.3224,23.74775 -5.41456,8.7249 -31.21307,29.4576 -55.30469,44.44503 -11.54143,7.17994 -11.65942,7.19715 -22.04861,3.21658 -26.55785,-10.17551 -81.74325,-60.80586 -93.31517,-85.61286 -13.95132,-29.90775 -19.12,-69.80911 -13.9497,-107.68936 8.231,-60.30457 39.91505,-136.68711 80.79771,-194.78366 l 12.52264,-17.79536 21.16768,22.69505 c 11.64223,12.48228 35.37422,36.904 52.73775,54.27048 l 31.57006,31.57544 15.15777,-1.50275 c 15.3037,-1.5172 29.5856,-5.36107 111.9267,-30.12411 46.6067,-14.01635 57.9504,-18.80561 59.9652,-25.317 0.6394,-2.06644 6.6453,-27.70341 13.3463,-56.97103 15.9123,-69.49862 20.7877,-85.44082 28.2822,-92.4816 14.5437,-13.66305 69.464,-17.54041 172.7963,-12.19937 55.9115,2.88996 63.2501,4.76871 69.4207,17.77233 2.2696,4.78277 10.6111,36.06206 18.5367,69.50953 15.6557,66.07026 19.6428,77.1657 29.3556,81.69193 11.0068,5.12926 39.3743,14.45161 74.9926,24.64463 18.8638,5.39833 46.0847,13.75438 60.4909,18.569 l 26.193,8.75384 11.1586,-5.40181 c 7.797,-3.77445 25.5068,-20.22687 58.7855,-54.61177 40.2327,-41.57003 48.1968,-48.7369 51.2983,-46.16294 8.4696,7.02921 36.7049,52.93981 52.6052,85.53628 27.8098,57.01159 42.0245,107.83996 42.0245,150.27034 0,24.48572 -8.0877,62.46311 -17.5594,82.45424 -8.626,18.20618 -48.2765,61.16395 -62.7327,67.96543 -5.02,2.36185 -15.4058,8.5381 -23.0795,13.725 -7.6737,5.1869 -14.2883,9.37246 -14.6991,9.30125 -0.4108,-0.0712 -10.5561,-7.16338 -22.5452,-15.7604 z"
         id="path2" /><path
         style="fill:#18324f"
         d="m 1280.7513,2082.338 c -50.5322,-4.5405 -115.5202,-19.0225 -161.1719,-35.9156 -43.5571,-16.1181 -121.20008,-58.2446 -160.39155,-87.0232 -14.02113,-10.2958 -15.99633,-12.732 -15.98952,-19.7214 0.0124,-12.7206 14.84291,-65.4624 42.88595,-152.5154 42.57102,-132.1516 55.72022,-183.0576 67.26612,-260.4143 2.8755,-19.2656 6.0935,-37.3676 7.1512,-40.2267 1.6555,-4.4754 5.1979,-0.4559 25.4728,28.9038 55.4721,80.3282 54.3507,78.8785 55.2122,71.3761 1.0183,-8.8677 -5.9594,-29.4934 -28.3287,-83.739 -10.0201,-24.2986 -33.5885,-82.7643 -52.3742,-129.9238 -49.4127,-124.0454 -52.8944,-131.8611 -63.09116,-141.6238 -17.26567,-16.5307 -29.12074,-19.4228 -101.97397,-24.877 -55.90589,-4.1854 -70.4116,-7.3358 -96.51399,-20.9613 -53.31675,-27.8313 -103.06816,-90.8007 -134.62665,-170.3943 -20.02274,-50.49928 -20.37604,-50.04293 38.74317,-50.04293 109.04205,0 161.53707,14.14395 256.10551,69.00353 39.50676,22.9181 58.03129,31.3918 72.40209,33.1191 9.4413,1.1348 12.2447,0.4161 18.1323,-4.6482 10.534,-9.0609 7.4023,-15.1934 -21.976,-43.0337 C 987.26634,981.37732 945.10327,953.59705 850.09642,902.67094 752.09136,850.13771 680.40031,801.55406 630.48884,753.8471 525.5941,653.58537 485.62228,512.32115 518.38954,357.67746 c 11.8902,-56.11527 32.25205,-112.50752 60.15138,-166.5895 41.64107,-80.71992 92.16805,-138.613277 108.87487,-124.747846 12.40257,10.293222 10.31241,18.715546 -25.18278,101.474306 -31.58288,73.63701 -51.55142,130.97546 -59.72238,171.4892 -4.19448,20.79732 -5.70034,38.59062 -6.59738,77.95501 -1.30103,57.09248 1.37197,86.53055 10.82718,119.24112 7.51394,25.99469 26.27427,66.16227 30.90119,66.16227 4.15072,0 7.58587,-11.00892 12.64375,-40.52049 4.17953,-24.38664 11.2093,-52.59572 18.83854,-75.59539 8.98635,-27.09089 38.03571,-83.06797 56.70574,-109.26992 33.03279,-46.359 83.3875,-98.3464 103.32762,-106.67792 7.71899,-3.2252 9.57866,-3.23137 15.72652,-0.0522 3.83479,1.98304 8.38745,7.02191 10.11702,11.19748 4.62882,11.17496 0.5081,21.62022 -19.80838,50.21049 -41.02185,57.7278 -75.622,127.64906 -84.55521,170.87224 -4.83108,23.3751 -7.34654,118.47093 -3.87536,146.50598 1.42646,11.5208 4.9269,27.18331 7.77876,34.8056 12.43423,33.23344 48.85931,76.50762 82.60617,98.13882 46.85487,30.03322 173.18041,94.77867 177.12901,90.7837 1.1635,-1.17717 3.8645,-20.88163 6.0021,-43.78768 2.1376,-22.90606 4.4881,-45.50589 5.2232,-50.22184 7.2092,-46.24625 17.2853,-82.23417 29.6377,-105.85475 8.685,-16.60761 29.274,-38.68614 36.0763,-38.68614 9.9784,0 11.121,19.77481 4.0676,70.39939 -2.5839,18.54548 -5.4147,41.43606 -6.2905,50.86797 -5.4651,58.85114 35.982,170.13828 77.6802,208.5743 11.7862,10.86417 14.048,11.87874 31.8812,14.30082 6.8282,0.9274 21.9873,6.99795 36.8355,14.75101 13.8776,7.24631 33.3898,15.43571 43.3605,18.19871 24.5181,6.7943 66.1471,10.8633 96.407,9.4231 26.5294,-1.2627 29.2532,-2.1345 88.8723,-28.44754 12.2621,-5.41191 28.3779,-11.60825 35.8129,-13.76965 14.8367,-4.31315 28.188,-15.76339 47.2188,-40.49533 21.8562,-28.40376 38.9602,-69.23243 49.2713,-117.61451 5.7902,-27.16899 5.8005,-80.51798 0.024,-124.94213 -2.3652,-18.1901 -3.9473,-38.58507 -3.5159,-45.32214 0.7617,-11.89584 1.0188,-12.27173 8.9115,-13.02923 6.6896,-0.64202 9.6118,0.79411 16.5198,8.11876 29.1527,30.91086 52.5232,123.14226 52.5232,207.2823 0,14.6788 0.3629,26.68873 0.8064,26.68873 1.7264,0 75.1121,-34.17484 96.3095,-44.8502 85.1176,-42.86658 140.1848,-89.18121 162.0352,-136.28096 13.532,-29.16901 17.8601,-55.1382 17.9913,-107.95062 0.1333,-53.63834 -2.8768,-78.66905 -12.9158,-107.40248 -14.4757,-41.43225 -50.8308,-111.7297 -81.0257,-156.67403 -11.2396,-16.72978 -19.0612,-33.61213 -19.0612,-41.14184 0,-1.79923 2.4804,-5.61414 5.5121,-8.47759 8.0653,-7.61769 22.7481,-5.39642 37.8241,5.72218 14.8318,10.93851 60.1471,56.65418 77.0078,77.68827 46.0101,57.39869 69.164,112.78055 88.0834,210.68673 6.0003,31.05084 8.2039,36.06374 13.8085,31.41232 9.1416,-7.58684 28.1212,-56.29511 36.1769,-92.8425 6.215,-28.1965 7.5439,-92.57994 2.6763,-129.65778 -9.293,-70.78647 -31.7847,-140.57844 -76.3723,-236.98354 -26.6935,-57.715539 -28.5534,-70.304139 -11.3533,-76.843625 23.4811,-8.92748 83.7143,72.731045 125.4359,170.054085 23.1242,53.94141 39.8604,110.35092 48.1075,162.14692 5.6298,35.35826 5.753,99.31458 0.2501,129.84182 -14.6052,81.0222 -51.607,152.04792 -112.2673,215.49974 -40.0597,41.90312 -92.3077,82.96997 -139.7652,109.85508 -15.7259,8.9089 -62.6877,35.42002 -104.3594,58.9136 -89.232,50.30692 -109.7731,62.831 -134.9278,82.26663 l -18.7521,14.48873 -36.7477,3.9107 c -103.8339,11.05 -140.8321,21.5527 -183.7384,52.158 -64.2747,45.8475 -107.812,109.9289 -127.724,187.9933 -8.6589,33.9467 -9.7104,55.3558 -4.5815,93.2751 4.7648,35.2271 4.0059,61.8968 -2.4812,87.1928 -5.9425,23.1723 -24.0639,57.7933 -43.0171,82.1841 -41.9095,53.9332 -49.3517,64.2422 -57.3362,79.4226 -10.7588,20.4548 -15.8868,42.0993 -15.9329,67.251 -0.033,17.669 0.7183,20.9214 7.1823,31.1141 3.9702,6.2604 11.8835,14.4688 17.5849,18.241 9.429,6.2383 12.2654,6.8375 31.3665,6.6269 24.7549,-0.2731 36.9242,-4.9771 36.9242,-14.2729 0,-3.1924 -6.2285,-14.464 -13.841,-25.048 -18.2377,-25.3567 -22.7873,-35.8282 -22.8529,-52.5988 -0.04,-10.2242 1.2379,-15.3984 4.9772,-20.1522 8.6754,-11.0289 19.8826,-12.6137 89.2881,-12.6267 73.5023,-0.014 79.2451,1.155 84.5424,17.2061 6.1729,18.7041 0.1992,36.1347 -23.0654,67.3016 -7.5433,10.1057 -13.4372,20.4681 -13.0976,23.0278 1.108,8.3508 11.8687,13.7086 32.0867,15.9759 23.332,2.6166 33.966,0.088 43.8362,-10.423 12.3738,-13.1773 16.5448,-21.7013 16.5546,-33.8311 0.01,-11.9267 -6.318,-75.9848 -8.8586,-89.6811 -0.8123,-4.3791 -0.5274,-7.9616 0.6331,-7.9612 1.1605,4e-4 12.9171,3.8636 26.1257,8.585 28.5974,10.2221 60.504,15.8001 92.352,16.1451 12.8005,0.1387 29.2299,0.9699 36.5099,1.8472 l 13.2363,1.5951 9.2747,35.5228 c 9.3737,35.9025 23.773,83.2125 55.9226,183.7384 21.7962,68.1528 29.5462,98.0389 29.5751,114.0497 0.02,10.8126 -0.9864,13.3303 -7.9397,19.8734 -27.5821,25.955 -125.2233,75.0771 -193.9319,97.5649 -30.3185,9.923 -74.8011,20.0379 -109.1641,24.8227 -31.1599,4.3388 -122.0241,6.299 -154.9306,3.3422 z m 120.5604,-282.6031 c 11.9882,-6.3911 19.3083,-13.5263 24.7369,-24.1117 11.3298,-22.0927 9.0288,-22.7587 -78.6335,-22.7587 -39.7488,0 -75.1805,0.8173 -78.7373,1.8163 -3.5568,0.9989 -7.1296,3.5431 -7.9395,5.6538 -1.9948,5.1984 6.0978,20.4364 15.9894,30.1073 13.0854,12.7934 24.4107,15.0244 73.1372,14.4072 36.4629,-0.4618 44.1542,-1.2264 51.4468,-5.1142 z m -187.6346,-458.4444 c -4.3713,-38.1737 -30.7042,-86.9674 -61.551,-114.0513 -20.3453,-17.8634 -60.8859,-29.693 -75.308,-21.9746 -8.8597,4.7416 -14.5844,17.238 -12.6415,27.5948 2.2757,12.1303 6.7448,14.9268 28.9595,18.1212 40.6624,5.8471 67.3954,28.0268 97.0383,80.5105 6.8492,12.1267 14.3186,25.3559 16.5988,29.3981 l 4.1456,7.3496 2.0805,-7.3496 c 1.1443,-4.0422 1.4493,-12.8617 0.6778,-19.5987 z m 280.4162,87.7961 c -4.6596,-5.6447 -4.0177,-45.167 1.1712,-72.1025 13.3262,-69.1776 41.9931,-113.1779 86.1285,-132.1976 19.4675,-8.3892 19.7944,-8.4377 56.3288,-8.3634 34.3509,0.07 37.9383,0.5283 55.0032,7.0293 18.6214,7.094 36.866,17.6394 36.866,21.3085 0,3.2488 -7.4719,6.3347 -23.1496,9.5608 -23.8438,4.9066 -24.537,5.5235 -27.8387,24.7776 -3.6148,21.0799 -12.177,38.391 -26.632,53.8445 -22.0805,23.6059 -44.1276,28.8814 -84.4703,20.2121 -17.6211,-3.7866 -19.3053,-3.7842 -25.1354,0.036 -8.3843,5.4936 -13.8601,16.9084 -24.5523,51.1822 -8.0813,25.9047 -9.5494,28.7857 -14.6686,28.7857 -3.1287,0 -7.2015,-1.8329 -9.0508,-4.0731 z m 384.7561,-250.2219 c -15.147,-25.1273 -44.3151,-62.5984 -64.5064,-82.8688 -17.2206,-17.288 -45.764,-38.1515 -72.3181,-52.8602 -4.1438,-2.2953 -7.5342,-5.6703 -7.5342,-7.4999 0,-6.8841 69.3279,-40.62328 112.3629,-54.68266 35.4966,-11.59659 108.2821,-20.53891 167.6088,-20.59216 18.3348,-0.0165 24.2731,0.7869 25.2837,3.4204 3.2376,8.43717 -15.3415,64.11412 -33.5027,100.39922 -18.3112,36.5845 -58.7464,85.4877 -90.681,109.6713 -28.33,21.4539 -26.9183,21.2611 -36.713,5.0128 z"
         id="path1" /></g></g></svg>
