<?xml version="1.0" standalone="no"?>
<!DOCTYPE svg PUBLIC "-//W3C//DTD SVG 20010904//EN"
 "http://www.w3.org/TR/2001/REC-SVG-20010904/DTD/svg10.dtd">
<svg version="1.0" xmlns="http://www.w3.org/2000/svg"
 width="546.000000pt" height="580.000000pt" viewBox="0 0 546.000000 580.000000"
 preserveAspectRatio="xMidYMid meet">
<metadata>
Created by potrace 1.16, written by Peter Selinger 2001-2019
</metadata>
<g transform="translate(0.000000,580.000000) scale(0.100000,-0.100000)"
fill="#000000" stroke="none">
<path d="M2610 5234 c-14 -2 -40 -7 -58 -10 -18 -3 -38 -15 -47 -27 -7 -12
-28 -85 -45 -162 -17 -77 -33 -148 -36 -157 -3 -12 -30 -25 -77 -39 -40 -11
-125 -37 -190 -57 -105 -31 -120 -34 -142 -22 -14 8 -72 63 -127 123 l-102
109 -23 -28 c-13 -16 -44 -66 -69 -111 -95 -173 -138 -347 -115 -469 7 -37 20
-83 31 -103 34 -67 181 -191 226 -191 9 0 35 15 58 33 23 18 53 40 67 49 15 9
33 37 44 65 34 90 84 180 115 206 81 69 218 29 236 -69 7 -39 8 -39 89 -18 91
24 449 30 585 10 58 -8 117 -18 131 -22 24 -5 28 -2 34 24 3 17 20 49 36 71
28 39 31 41 83 41 30 0 66 -4 80 -10 36 -13 98 -97 131 -176 40 -95 56 -116
131 -169 l66 -46 39 25 c21 15 42 26 47 26 4 0 36 28 70 63 66 67 80 96 102
218 22 120 -42 326 -158 506 -26 40 -51 71 -57 70 -5 -2 -57 -55 -115 -118
-112 -122 -133 -133 -187 -106 -15 8 -91 31 -167 52 -77 21 -147 46 -156 55
-9 9 -28 72 -44 146 -38 179 -44 193 -74 206 -27 11 -364 21 -412 12z"/>
<path d="M753 4176 c-22 -25 -61 -82 -88 -127 -53 -90 -145 -271 -145 -286 0
-6 27 -31 60 -57 116 -91 230 -206 230 -232 0 -14 -16 -73 -35 -132 -18 -59
-38 -129 -42 -156 -6 -35 -15 -54 -33 -67 -22 -17 -308 -89 -351 -89 -9 0 -20
-8 -25 -17 -9 -22 -18 -444 -10 -478 9 -35 28 -42 223 -90 95 -23 175 -44 176
-46 2 -2 14 -49 26 -104 13 -55 34 -133 47 -173 13 -40 24 -78 24 -85 0 -15
-106 -119 -200 -198 -79 -65 -89 -78 -90 -105 -1 -55 209 -415 254 -436 17 -7
40 -4 97 16 82 29 233 76 264 83 15 3 49 -25 141 -119 66 -68 128 -135 138
-149 16 -26 15 -31 -46 -213 l-63 -186 30 -25 c114 -94 400 -260 428 -249 9 3
75 70 147 149 l130 144 48 -15 c114 -36 285 -84 297 -84 32 0 53 -51 79 -191
32 -168 46 -206 81 -219 31 -12 464 -13 483 -2 7 5 32 93 56 197 30 129 49
193 61 201 10 7 49 20 89 29 39 9 113 29 164 46 51 16 100 29 111 29 10 0 46
-33 84 -77 36 -43 97 -109 136 -147 l70 -70 53 25 c68 31 289 169 345 215 24
19 43 42 43 51 0 9 -27 96 -61 195 l-60 180 138 141 c76 78 141 143 145 145 5
2 78 -20 164 -48 175 -59 219 -64 247 -28 40 49 91 139 162 280 l74 147 -154
136 c-85 75 -155 139 -155 142 0 3 16 56 35 119 20 62 40 139 45 171 5 31 18
65 27 74 11 10 91 35 191 59 135 33 175 47 187 63 12 18 15 61 14 237 -2 265
-3 273 -49 281 -82 15 -268 60 -307 75 -41 15 -44 19 -62 82 -10 37 -33 115
-50 173 -17 59 -31 113 -31 122 0 14 84 93 228 216 34 29 62 59 62 67 0 36
-163 327 -233 417 -34 44 -30 44 -154 -2 -123 -45 -149 -62 -253 -157 -101
-93 -240 -201 -277 -215 -50 -19 -21 -29 82 -29 57 0 127 -5 154 -11 l51 -11
-5 -36 c-19 -149 -29 -194 -56 -260 -16 -41 -39 -87 -50 -103 l-21 -29 31
-119 c65 -252 81 -493 47 -708 -28 -178 -39 -153 142 -327 86 -84 179 -172
206 -197 88 -79 116 -180 81 -295 -16 -55 -60 -103 -113 -124 -18 -7 -64 -13
-101 -14 -89 0 -114 15 -290 182 -76 72 -143 132 -149 132 -5 0 -39 -40 -76
-89 -78 -105 -224 -256 -330 -339 -130 -104 -337 -212 -491 -257 -301 -87
-613 -85 -901 5 -133 42 -362 158 -465 235 -177 133 -399 390 -473 546 -15 30
-33 65 -41 79 -23 40 -62 149 -101 282 -32 109 -37 140 -43 273 -3 83 -3 218
1 300 5 127 12 171 43 289 l36 138 -40 82 c-46 93 -81 221 -81 295 0 68 13 74
178 79 l132 4 -72 50 c-92 63 -140 102 -255 205 -51 45 -110 91 -133 103 -43
22 -195 80 -210 80 -4 0 -26 -20 -47 -44z"/>
</g>
</svg>
