<?xml version="1.0" standalone="no"?>
<!DOCTYPE svg PUBLIC "-//W3C//DTD SVG 20010904//EN"
 "http://www.w3.org/TR/2001/REC-SVG-20010904/DTD/svg10.dtd">
<svg version="1.0" xmlns="http://www.w3.org/2000/svg"
 width="234.000000pt" height="226.000000pt" viewBox="0 0 234.000000 226.000000"
 preserveAspectRatio="xMidYMid meet">
<metadata>
Created by potrace 1.16, written by Peter Selinger 2001-2019
</metadata>
<g transform="translate(0.000000,226.000000) scale(0.100000,-0.100000)"
fill="#000000" stroke="none">
<path d="M592 2041 c-90 -33 -206 -118 -256 -185 -117 -158 -149 -351 -86
-519 82 -220 324 -380 550 -364 78 5 246 63 271 93 18 22 52 17 95 -15 71 -52
94 -84 103 -141 9 -53 11 -57 157 -200 206 -201 453 -430 489 -452 59 -35 135
-12 175 54 42 70 20 147 -64 221 -34 30 -158 145 -276 256 -246 231 -285 262
-347 269 -37 4 -54 15 -110 67 -76 70 -75 51 -17 200 36 94 44 233 19 333 -36
148 -145 277 -300 353 l-85 42 -133 4 c-112 3 -140 1 -185 -16z m269 -111 c79
-15 138 -47 199 -110 101 -102 144 -233 122 -366 -46 -279 -362 -441 -606
-311 -167 89 -264 277 -230 444 33 163 145 290 299 339 49 16 145 17 216 4z"/>
</g>
</svg>
