<?xml version="1.0" standalone="no"?>
<!DOCTYPE svg PUBLIC "-//W3C//DTD SVG 20010904//EN"
 "http://www.w3.org/TR/2001/REC-SVG-20010904/DTD/svg10.dtd">
<svg version="1.0" xmlns="http://www.w3.org/2000/svg"
 width="455.000000pt" height="486.000000pt" viewBox="0 0 455.000000 486.000000"
 preserveAspectRatio="xMidYMid meet">
<metadata>
Created by potrace 1.16, written by Peter Selinger 2001-2019
</metadata>
<g transform="translate(0.000000,486.000000) scale(0.100000,-0.100000)"
fill="#000000" stroke="none">
<path d="M670 4614 c-79 -72 -179 -241 -243 -414 -128 -344 -102 -659 76 -920
98 -143 289 -290 577 -445 227 -122 300 -169 386 -249 68 -64 78 -77 68 -93
-22 -35 -79 -22 -193 47 -197 117 -307 151 -518 157 -179 6 -178 7 -143 -90
68 -188 186 -338 315 -399 60 -28 80 -31 204 -38 155 -8 198 -22 230 -74 11
-18 42 -93 70 -167 27 -73 83 -213 124 -310 76 -178 112 -279 99 -279 -4 0
-44 54 -87 120 -44 66 -82 120 -85 120 -3 0 -14 -57 -24 -127 -21 -150 -61
-299 -146 -552 -54 -160 -89 -290 -90 -328 0 -17 214 -148 319 -194 294 -130
685 -146 999 -40 166 55 399 178 423 222 16 31 4 81 -83 349 -43 135 -88 282
-99 326 l-21 82 -111 4 c-87 4 -129 11 -186 31 l-73 26 6 -47 c4 -26 9 -81 13
-123 5 -74 5 -77 -25 -110 -27 -31 -35 -34 -80 -33 -52 2 -92 17 -92 35 0 6
18 34 40 61 43 55 57 99 41 139 -8 21 -18 27 -57 33 -71 9 -245 7 -283 -4 -41
-12 -51 -24 -51 -68 0 -38 10 -60 57 -121 39 -52 33 -66 -30 -75 -60 -9 -98 5
-125 45 -21 29 -23 43 -19 99 5 83 36 144 123 247 117 137 157 252 136 396
-16 111 -15 130 8 223 32 125 90 231 172 313 130 131 229 175 441 195 l138 14
57 44 c51 39 112 75 406 239 43 24 95 53 115 65 119 66 278 206 363 318 162
216 211 448 152 731 -52 250 -214 565 -329 641 -18 12 -28 13 -44 4 -30 -16
-26 -46 20 -141 196 -403 236 -711 125 -962 -32 -70 -43 -77 -51 -30 -51 295
-116 426 -301 610 -74 73 -114 94 -143 76 -29 -18 -23 -49 23 -117 65 -94 131
-220 168 -317 27 -72 32 -101 36 -204 7 -196 -23 -297 -116 -391 -75 -76 -181
-143 -339 -217 l-143 -65 0 91 c0 200 -82 437 -151 437 -25 0 -28 -19 -18 -96
22 -159 22 -235 0 -329 -12 -49 -35 -118 -51 -152 -37 -74 -114 -163 -142
-163 -12 0 -66 -21 -122 -47 -100 -48 -102 -48 -201 -47 -114 0 -194 20 -268
65 -28 17 -61 29 -81 29 -28 0 -42 8 -74 45 -79 90 -152 282 -152 402 0 29 7
97 16 150 22 139 6 176 -52 118 -58 -58 -97 -187 -113 -373 -5 -63 -11 -115
-13 -118 -9 -9 -348 169 -406 213 -75 58 -134 134 -159 205 -25 72 -24 313 1
408 27 98 120 276 193 367 37 47 42 82 14 107 -29 26 -54 13 -136 -68 -165
-163 -259 -339 -296 -551 -20 -118 -23 -120 -59 -41 -43 94 -60 180 -60 312 0
187 34 318 149 579 70 156 79 188 61 210 -19 23 -36 18 -80 -21z m1013 -2450
c97 -33 206 -207 195 -314 -3 -35 -3 -35 -37 34 -60 123 -146 195 -234 196
-31 0 -39 4 -48 26 -7 20 -6 32 6 50 18 29 51 31 118 8z m657 -1184 c13 -8 13
-12 0 -36 -32 -57 -62 -69 -173 -69 -112 0 -147 14 -177 70 -12 23 -12 28 0
35 20 13 331 12 350 0z"/>
<path d="M3465 2700 c-60 -4 -146 -17 -190 -29 -83 -22 -267 -108 -272 -127
-2 -5 13 -18 33 -28 92 -44 181 -130 260 -251 21 -33 39 -62 41 -64 1 -2 21 9
43 24 63 44 164 157 203 227 38 66 87 202 87 237 0 24 0 24 -205 11z"/>
<path d="M2692 2142 c-119 -43 -186 -151 -212 -342 -12 -84 -4 -120 26 -120
16 0 15 -1 38 81 9 31 24 67 34 80 18 22 21 22 81 9 48 -10 70 -10 100 -1 68
20 131 110 131 187 0 17 9 22 52 30 28 5 53 15 56 22 2 7 -19 23 -52 38 -77
35 -182 42 -254 16z"/>
</g>
</svg>
